<svg xmlns="http://www.w3.org/2000/svg" width="100%" height="auto" viewBox="0 0 588 566" version="1.1">
	<path d="M 382.275 35.654 C 376.960 37.536, 369.016 44.620, 364.053 51.902 C 353.159 67.887, 331.819 89.279, 311.684 104.395 C 283.508 125.549, 245.592 145.159, 205.500 159.313 C 196.072 162.641, 194.979 162.811, 186.380 162.290 C 177.589 161.757, 176.741 161.902, 162.880 166.311 C 144.279 172.228, 98.545 186.369, 70.316 194.932 C 46.343 202.204, 43.803 203.513, 37.030 212.081 C 29.141 222.062, 26.460 234.569, 27.295 257.500 C 28.155 281.126, 32.939 300.345, 43.537 322.747 C 57.391 352.030, 76.116 368.154, 96.252 368.139 C 100.239 368.136, 142.224 358.993, 149.711 356.497 C 150.805 356.132, 154.952 361.749, 171.861 386.500 C 174.867 390.900, 192.532 417.281, 211.117 445.125 C 229.702 472.969, 245.640 496.032, 246.535 496.375 C 249.967 497.692, 261.038 496.924, 267.645 494.912 C 285.124 489.587, 303.982 474.049, 305.682 463.572 C 306.375 459.303, 304.507 454.348, 301.613 452.777 C 300.451 452.146, 297.925 451.368, 296 451.048 C 292.792 450.515, 291.806 449.383, 284.183 437.483 C 272.998 420.021, 250 381.489, 250 380.210 C 250 379.645, 252.993 377.539, 256.650 375.528 C 272.049 367.064, 276.008 361.027, 269.605 355.772 C 268.447 354.822, 266.098 354.034, 264.385 354.022 C 259.773 353.989, 256.945 351.167, 251.971 341.635 L 247.500 333.067 250.500 330.064 C 253.847 326.714, 261.427 324.444, 287.030 319.127 C 321.329 312.004, 348.144 309.525, 382.733 310.279 C 408.340 310.838, 422.288 312.394, 443.500 317.058 C 457.475 320.131, 465.411 320.012, 472.331 316.627 C 482.748 311.530, 489.261 301.941, 493.752 285.089 C 496.114 276.229, 496.315 273.790, 496.404 253 C 496.505 229.257, 496.012 224.263, 490.876 197 C 477.575 126.401, 447.386 64.178, 415.607 41.861 C 411.780 39.172, 406.395 36.304, 403.642 35.486 C 397.368 33.623, 387.798 33.698, 382.275 35.654 M 385.204 48.072 C 373.314 54.113, 366.784 73.822, 366.670 104 C 366.597 123.544, 367.973 136.498, 372.567 159.500 C 386.608 229.806, 421.091 294.300, 450.115 304.540 C 466.076 310.172, 478.289 300.262, 482.905 277.933 C 487.885 253.846, 484.884 215.759, 474.952 177 C 464.695 136.971, 451.094 103.809, 434.957 79.490 C 426.359 66.532, 412.851 52.544, 405.514 49.001 C 398.521 45.624, 390.723 45.267, 385.204 48.072 M 392.379 63.425 C 387.907 65.388, 384.196 70.788, 381.178 79.722 C 378.648 87.214, 378.552 88.326, 378.569 110 C 378.585 129.875, 378.904 134.350, 381.305 148.353 C 388.133 188.176, 399.103 220.837, 415.381 249.802 C 431.974 279.327, 447.990 292.396, 460.349 286.495 C 481.156 276.561, 476.147 201.195, 450.279 135 C 431.505 86.955, 407.204 56.915, 392.379 63.425 M 348.332 88.578 C 341.112 96.913, 322.314 112.457, 306.288 123.345 C 298.472 128.655, 291.872 133, 291.622 133 C 291.372 133, 286.742 135.507, 281.334 138.570 C 258.463 151.526, 217.698 169.183, 198.042 174.648 C 192.180 176.278, 191.356 176.869, 187.339 182.326 C 180.552 191.546, 179.488 196.361, 179.568 217.500 C 179.629 233.564, 179.913 236.526, 182.209 245.045 C 186.216 259.917, 192.416 274.663, 198.797 284.500 C 205.472 294.789, 206.933 296.283, 209.034 294.968 C 210.307 294.171, 210.275 293.684, 208.796 291.275 C 202.358 280.790, 194.185 260.390, 195.795 258.824 C 196.183 258.447, 211.877 252.998, 230.670 246.716 L 264.840 235.293 266.568 239.896 C 268.853 245.981, 276.361 261.078, 280.622 268.152 L 284.026 273.805 287.763 272.715 C 289.818 272.115, 291.618 271.554, 291.762 271.467 C 291.907 271.380, 289.806 266.627, 287.093 260.904 C 282.305 250.801, 276 234.134, 276 231.579 C 276 230.884, 277.847 229.763, 280.104 229.087 C 282.361 228.411, 284.836 227.616, 285.604 227.322 C 286.398 227.017, 287 227.404, 287 228.219 C 287 229.827, 303.214 262.435, 305.495 265.414 C 306.809 267.131, 307.376 267.204, 310.980 266.124 C 313.191 265.462, 315 264.779, 315 264.606 C 315 264.433, 313.025 260.064, 310.610 254.896 C 304.622 242.079, 298.953 227.232, 298.432 223 C 298.151 220.713, 298.310 219.980, 298.893 220.885 C 299.609 221.997, 300.428 222.046, 303.042 221.135 C 307.993 219.409, 308.747 219.691, 310.034 223.750 C 311.443 228.193, 325.193 256.687, 327.209 259.341 C 328.441 260.965, 329.104 261.049, 332.803 260.053 C 335.112 259.431, 337 258.548, 337 258.090 C 337 257.632, 334.783 252.587, 332.073 246.879 C 327.691 237.647, 319.533 216.029, 320.232 215.500 C 321.108 214.836, 327.580 213, 329.042 213 C 330.330 213, 331.884 215.806, 334.996 223.750 C 340.522 237.852, 349.043 255, 350.526 255 C 352.547 255, 358 252.842, 358 252.042 C 358 251.623, 356.215 247.416, 354.033 242.693 C 350.005 233.974, 343.809 217.043, 342.582 211.402 L 341.908 208.305 354.204 204.017 C 360.967 201.659, 366.889 199.378, 367.365 198.949 C 367.841 198.520, 366.393 190.827, 364.144 181.835 C 356.271 150.368, 352.111 114.275, 353.818 92.250 C 354.212 87.162, 354.226 83, 353.849 83 C 353.473 83, 350.990 85.510, 348.332 88.578 M 399.703 168.776 C 394.224 174.830, 398.457 195.416, 406.813 203.347 C 412.465 208.713, 416.423 204.755, 416.228 193.933 C 416.066 185.005, 412.846 176.650, 407.483 171.250 C 402.755 166.488, 401.992 166.246, 399.703 168.776 M 173.924 176.322 C 157.973 184.757, 152.671 217.144, 161.520 252.091 C 167.414 275.365, 177.137 293.094, 192.916 309.337 C 206.155 322.965, 220.115 329.982, 230.825 328.392 C 235.751 327.661, 235.419 327.036, 228.816 324.608 C 216.770 320.177, 203.103 308.476, 193.721 294.561 C 179.107 272.885, 170.620 247.437, 169.350 221.485 C 168.445 202.998, 170.823 190.659, 177.392 179.750 C 181.241 173.357, 180.645 172.768, 173.924 176.322 M 147.500 183.960 C 142.874 185.523, 142.259 186.130, 139.279 192.075 C 128.535 213.509, 131.545 248.889, 146.966 282.426 C 152.453 294.359, 160.920 308.220, 162.348 307.607 C 162.981 307.336, 165.412 306.584, 167.750 305.938 C 170.088 305.292, 172 304.566, 172 304.326 C 172 304.087, 170.135 301.144, 167.855 297.787 C 162.434 289.804, 153.887 271.667, 150.584 261.136 C 145.944 246.344, 144.723 236.360, 145.306 218 C 145.852 200.823, 147.353 192.589, 151.116 186.124 C 152.197 184.267, 152.950 182.640, 152.791 182.509 C 152.631 182.377, 150.250 183.030, 147.500 183.960 M 124.256 191.029 C 118.647 193.284, 113.193 209.036, 112.308 225.538 C 110.882 252.159, 118.587 280.008, 134.363 305.250 C 137.027 309.512, 139.806 313, 140.538 313 C 141.271 313, 143.117 312.526, 144.640 311.947 C 147.032 311.037, 147.667 311.209, 149.279 313.197 C 150.306 314.463, 147.092 307.625, 142.135 298 C 126.279 267.209, 122.208 254.399, 121.319 232.500 C 120.670 216.493, 122.221 205.565, 126.458 196.311 C 127.856 193.257, 129 190.588, 129 190.379 C 129 189.748, 126.636 190.072, 124.256 191.029 M 74.284 207.110 C 71.426 207.936, 70.847 208.755, 69.082 214.469 C 62.341 236.295, 62.351 264.668, 69.110 287.371 C 73.606 302.477, 86.176 327, 89.422 327 C 91.776 327, 97 324.816, 97 323.832 C 97 323.298, 95.709 320.979, 94.132 318.680 C 89.830 312.411, 84.348 301.061, 80.540 290.540 C 70.595 263.067, 69.451 234.378, 77.425 212.410 C 79.875 205.662, 79.790 205.519, 74.284 207.110 M 56.625 212.469 C 40.286 218.293, 34.847 245.652, 42.903 281.500 C 47.205 300.641, 55.439 321.216, 62.579 330.663 L 64.969 333.826 70.235 332.209 C 73.131 331.319, 75.638 330.508, 75.807 330.405 C 75.977 330.302, 74.574 327.807, 72.692 324.859 C 64.951 312.741, 58.620 297.760, 54.792 282.500 C 52.863 274.810, 52.536 270.880, 52.544 255.500 C 52.552 239.889, 52.862 236.317, 54.882 228.586 C 56.163 223.684, 58.048 217.721, 59.070 215.336 C 60.093 212.951, 60.832 211.020, 60.714 211.044 C 60.597 211.068, 58.756 211.709, 56.625 212.469 M 371.805 276.750 C 373.244 278.790, 373.456 279.796, 372.623 280.646 C 371.782 281.505, 370.873 281.261, 369 279.673 C 367.625 278.508, 369.988 281.152, 374.250 285.549 C 378.512 289.947, 382 293.858, 382 294.241 C 382 294.624, 378.288 294.665, 373.750 294.332 C 366.189 293.778, 365.126 293.426, 361.021 290.114 C 358.558 288.126, 356.162 286.624, 355.697 286.775 C 355.232 286.926, 355.071 286.693, 355.340 286.258 C 355.609 285.823, 354.608 283.970, 353.114 282.140 C 350.692 279.172, 350.257 278.985, 349.077 280.407 C 348.126 281.553, 348.087 282, 348.937 282 C 349.586 282, 349.871 282.399, 349.570 282.887 C 349.269 283.374, 349.726 284.358, 350.587 285.072 C 351.879 286.145, 352.311 286.121, 353.061 284.936 C 353.631 284.035, 353.975 283.943, 353.985 284.691 C 354.014 286.997, 351.953 287.103, 348.930 284.950 C 346.856 283.474, 346.073 282.247, 346.496 281.137 C 347.012 279.781, 346.894 279.727, 345.809 280.826 C 344.727 281.922, 345.579 283.170, 350.728 288.030 C 354.154 291.264, 356.629 294.065, 356.228 294.256 C 355.828 294.447, 351.749 294.728, 347.164 294.882 L 338.827 295.161 332.600 288.830 C 329.175 285.349, 325.486 281.233, 324.401 279.684 C 322.686 277.236, 322.429 277.132, 322.429 278.886 C 322.429 279.997, 322.628 280.705, 322.872 280.461 C 323.486 279.847, 326 282.033, 326 283.181 C 326 283.697, 325.581 283.859, 325.069 283.543 C 324.557 283.226, 323.854 283.428, 323.506 283.991 C 323.158 284.554, 323.577 285.284, 324.437 285.614 C 325.296 285.944, 326 286.919, 326 287.781 C 326 289.001, 325.391 288.816, 323.250 286.944 C 321.738 285.621, 322.723 286.882, 325.440 289.746 C 328.157 292.610, 330.182 295.121, 329.940 295.326 C 329.698 295.530, 325.450 296.201, 320.500 296.816 L 311.500 297.935 307.178 293.217 C 304.802 290.623, 301.024 285.913, 298.784 282.750 C 294.649 276.914, 293.031 275.322, 295.030 279.055 C 295.635 280.186, 295.911 281.648, 295.644 282.305 C 295.337 283.060, 295.123 282.948, 295.064 282 C 294.983 280.712, 294.841 280.703, 294.061 281.936 C 293.271 283.183, 292.918 283.183, 291.365 281.936 C 288.570 279.690, 293.240 286.008, 299.181 292.507 C 301.976 295.566, 304.029 298.305, 303.741 298.592 C 303.454 298.880, 298.782 299.771, 293.359 300.574 C 287.937 301.376, 274.328 303.863, 263.118 306.100 C 244.510 309.813, 242.203 310.074, 236.618 309.093 C 229.918 307.917, 219.724 303.321, 215.001 299.348 C 212.570 297.302, 212.121 297.170, 212.666 298.658 C 213.309 300.418, 213.232 300.416, 210.920 298.603 C 209.589 297.559, 211.433 299.584, 215.017 303.103 C 222.505 310.453, 230.515 314.754, 239.621 316.313 C 245.386 317.301, 247.099 317.097, 261.686 313.684 C 301.582 304.349, 338.133 300.021, 377 300.030 C 395.428 300.035, 403.219 300.491, 419.500 302.520 L 424.500 303.143 422.298 301.200 C 420.135 299.291, 412.201 297.673, 398.500 296.346 C 393.940 295.905, 391.598 295.061, 388.742 292.829 C 386.675 291.214, 384.526 290.175, 383.967 290.520 C 383.408 290.866, 383.068 290.778, 383.212 290.324 C 383.357 289.871, 380.603 286.012, 377.094 281.750 C 370.709 273.993, 368.156 271.580, 371.805 276.750 M 373.331 281.409 C 372.407 282.463, 373.068 283.631, 376.488 286.988 C 379.056 289.509, 381.291 290.938, 381.989 290.507 C 382.802 290.005, 382.321 288.901, 380.429 286.926 C 378.925 285.356, 377.318 284.303, 376.858 284.587 C 376.399 284.872, 376.321 284.327, 376.685 283.378 C 377.186 282.072, 376.953 281.804, 375.725 282.275 C 374.582 282.714, 374.266 282.469, 374.658 281.449 C 375.342 279.666, 374.872 279.652, 373.331 281.409 M 326 284.893 C 326 285.384, 326.739 286.069, 327.641 286.416 C 329.014 286.943, 329.076 286.796, 328.019 285.523 C 326.579 283.788, 326 283.607, 326 284.893 M 173 322.500 C 174.292 323.875, 175.574 325, 175.849 325 C 176.124 325, 175.292 323.875, 174 322.500 C 172.708 321.125, 171.426 320, 171.151 320 C 170.876 320, 171.708 321.125, 173 322.500 M 193.564 328.104 C 193.874 328.604, 195.514 329.731, 197.209 330.608 C 199.589 331.839, 199.973 332.403, 198.896 333.086 C 197.949 333.685, 198.759 333.974, 201.417 333.985 C 203.571 333.993, 205.146 333.847, 204.917 333.661 C 203.353 332.387, 193.114 327.375, 193.564 328.104 M 184.733 331.124 C 185.412 331.808, 186.219 332.115, 186.526 331.807 C 186.834 331.499, 186.279 330.940, 185.293 330.564 C 183.868 330.022, 183.753 330.136, 184.733 331.124 M 189 333 C 189.825 333.533, 191.175 333.945, 192 333.914 C 192.989 333.878, 192.819 333.567, 191.500 333 C 188.751 331.819, 187.172 331.819, 189 333 M 108.500 339 C 109.495 340.100, 110.535 341, 110.810 341 C 111.085 341, 110.495 340.100, 109.500 339 C 108.505 337.900, 107.465 337, 107.190 337 C 106.915 337, 107.505 337.900, 108.500 339 M 231.500 340.889 C 229.028 341.427, 228.553 341.978, 228.801 344.021 C 229.288 348.027, 234.985 358.977, 238.751 363.146 C 242.607 367.414, 245.268 367.947, 250.143 365.426 L 253.187 363.852 249.324 360.545 C 247.003 358.558, 243.672 353.803, 240.980 348.631 C 238.516 343.897, 236.050 340.072, 235.500 340.130 C 234.950 340.189, 233.150 340.530, 231.500 340.889 M 76 346.378 C 76 346.585, 76.787 347.373, 77.750 348.128 C 79.336 349.371, 79.371 349.336, 78.128 347.750 C 76.821 346.084, 76 345.555, 76 346.378 M 101 354 C 100.175 354.533, 99.950 354.969, 100.500 354.969 C 101.050 354.969, 102.175 354.533, 103 354 C 103.825 353.467, 104.050 353.031, 103.500 353.031 C 102.950 353.031, 101.825 353.467, 101 354 M 89.813 354.683 C 90.534 354.972, 91.397 354.936, 91.729 354.604 C 92.061 354.272, 91.471 354.036, 90.417 354.079 C 89.252 354.127, 89.015 354.364, 89.813 354.683 M 233.037 385.110 C 231.682 385.651, 230.438 386.228, 230.273 386.393 C 229.702 386.965, 233.220 394.544, 237.982 403 C 240.615 407.675, 246.688 418.700, 251.477 427.500 C 260.165 443.465, 272.053 462.024, 278.308 469.390 L 281.612 473.280 285.306 470.036 C 287.338 468.252, 289 466.338, 289 465.782 C 289 465.226, 286.823 462.235, 284.162 459.136 C 277.014 450.811, 254.341 414.980, 243.142 394.313 C 240.068 388.641, 237.091 384.029, 236.527 384.063 C 235.962 384.098, 234.391 384.569, 233.037 385.110" stroke="none" fill="black" fill-rule="evenodd"/>
</svg>