<svg xmlns="http://www.w3.org/2000/svg" width="100%" height="auto" viewBox="0 0 504 598" version="1.1">
	<path d="M 188.500 62.596 C 180.247 69.860, 180.883 69.763, 172.935 64.961 L 165.870 60.692 160.156 66.346 C 157.013 69.456, 153.880 72, 153.192 72 C 152.505 72, 149.269 70.650, 146 69 C 142.731 67.350, 139.613 66, 139.071 66 C 138.529 66, 136.378 68.453, 134.292 71.450 C 132.207 74.448, 129.960 77.125, 129.299 77.400 C 128.638 77.675, 125.385 76.797, 122.069 75.450 C 118.753 74.102, 115.468 73.007, 114.770 73.015 C 114.071 73.024, 112.108 75.612, 110.407 78.765 C 107.015 85.055, 107.634 84.835, 96.051 83.871 L 91.601 83.500 90.828 88 C 89.305 96.860, 89.430 96.685, 84.113 97.391 C 78.445 98.142, 77.996 98.838, 78.011 106.832 C 78.029 116.508, 81.904 126.065, 89.760 135.812 L 93.235 140.124 90.272 143.812 C 85.673 149.536, 83.826 153.824, 83.257 160.103 C 82.606 167.282, 84.251 174.114, 88.068 180.088 L 91 184.675 91 308.732 C 91 453.707, 90.051 441.055, 101.812 452.841 C 112.817 463.870, 133.781 473.221, 160.263 478.914 C 173.707 481.805, 199.385 484.998, 209.288 485.011 C 213.805 485.017, 219.134 485.292, 221.132 485.623 C 224.641 486.203, 224.824 486.447, 226.555 492.843 C 232.511 514.844, 244.782 526.936, 267.500 533.191 C 274.637 535.156, 277.980 535.399, 298.500 535.445 C 322.890 535.499, 338.374 534.146, 355.750 530.442 C 357.872 529.989, 358 530.280, 358 535.547 C 358 542.386, 358.972 544.344, 363.212 546.044 C 365.020 546.769, 374.825 551.374, 385 556.276 C 395.175 561.178, 405.075 565.386, 407 565.627 C 409.882 565.988, 412.706 564.868, 423 559.282 L 435.500 552.500 436.099 545.510 C 437.032 534.629, 436.742 534.143, 426.305 529.124 C 420.474 526.320, 416.834 523.931, 416.170 522.474 C 415.569 521.155, 413.529 519.679, 411.317 518.962 C 409.218 518.282, 404.925 516.437, 401.779 514.863 C 398.632 513.288, 394.681 512, 393 512 C 391.319 512, 387.269 510.650, 384 509 C 380.731 507.350, 377.257 505.999, 376.279 505.997 C 375.300 505.996, 371.682 507.190, 368.238 508.652 C 361.194 511.642, 359.503 511.231, 363.079 507.397 C 366.556 503.670, 373.185 500.540, 392.863 493.335 C 423.893 481.972, 436.774 474.210, 442.216 463.597 C 446.896 454.470, 444.007 442.697, 435.183 434.930 C 422.865 424.087, 404.059 417.239, 373.500 412.469 C 367.450 411.525, 361.938 410.597, 361.250 410.407 C 360.259 410.134, 360 386.228, 360 295.141 C 360 182.780, 360.044 180.121, 361.978 175.859 C 363.317 172.907, 363.963 169.300, 363.978 164.685 L 364 157.870 368.861 153.135 C 375.241 146.921, 378.445 141.696, 381.554 132.435 C 384.478 123.723, 384.131 122.651, 377.840 120.957 L 373.912 119.899 374.597 113.846 C 375.425 106.523, 374.915 106.037, 366.372 106.015 C 362.664 106.006, 359.867 105.506, 359.288 104.750 C 358.761 104.063, 357.769 100.892, 357.083 97.704 L 355.836 91.909 347.465 92.588 L 339.093 93.267 336.506 87.418 C 335.083 84.200, 333.423 81.262, 332.817 80.887 C 332.211 80.513, 328.581 81.075, 324.750 82.136 C 316.699 84.368, 316.672 84.355, 311.885 76.457 C 309.837 73.078, 307.889 71, 306.769 71 C 305.774 71, 302.184 72.128, 298.790 73.507 C 295.397 74.886, 291.916 75.791, 291.055 75.517 C 290.194 75.244, 287.553 72.541, 285.186 69.510 C 282.819 66.480, 280.159 64, 279.274 64 C 278.390 64, 274.801 65.575, 271.299 67.500 C 267.797 69.425, 264.142 71, 263.178 71 C 262.214 71, 259.209 68.750, 256.500 66 C 253.791 63.250, 251.005 61, 250.307 61 C 249.610 61, 246.577 62.575, 243.567 64.500 C 240.558 66.425, 237.054 68, 235.781 68 C 234.466 68, 231.244 66.056, 228.321 63.500 C 225.492 61.025, 222.653 59, 222.012 59 C 221.371 59, 218.333 60.800, 215.260 63 C 212.188 65.200, 208.723 67, 207.560 67 C 206.398 67, 203.051 65.200, 200.123 63 C 197.195 60.800, 194.282 59.017, 193.650 59.038 C 193.017 59.058, 190.700 60.659, 188.500 62.596 M 179.072 81.037 C 153.740 83.489, 127.134 89.887, 113.305 96.854 C 100.085 103.514, 92.085 112.321, 92.022 120.283 C 91.953 128.992, 104.358 141.987, 112.750 141.996 C 116.653 142.001, 116.818 141.118, 113.500 138 C 102.023 127.218, 129.460 112.331, 172.787 105.830 C 192.320 102.900, 230.878 102.654, 250 105.339 C 283.234 110.004, 310.594 118.941, 324.927 129.814 C 335.561 137.881, 336.362 143.044, 328.360 151.944 C 324.429 156.316, 323.969 157.258, 325.100 158.621 C 326.871 160.755, 331.384 160.058, 341.742 156.050 C 356.444 150.361, 364 143.527, 364 135.917 C 364 127.977, 359.641 121.215, 349.617 113.604 C 329.895 98.632, 295.623 87.761, 251.500 82.483 C 235.980 80.626, 192.320 79.754, 179.072 81.037 M 187.500 88.148 C 160.403 89.810, 132.157 95.882, 117.720 103.149 C 105.106 109.499, 98.584 118.617, 102.038 125.071 C 102.995 126.860, 103.488 126.590, 108.349 121.611 C 120.216 109.456, 144.673 100.860, 179.966 96.439 C 198.557 94.111, 238.657 94.875, 257.418 97.915 C 292.221 103.556, 321.485 114.800, 334.604 127.572 C 341.304 134.096, 343.104 139.275, 340.850 145.544 L 339.308 149.834 341.648 148.944 C 348.089 146.495, 354.659 140.830, 355.500 137.001 C 357.555 127.643, 344.838 116.074, 322.439 106.925 C 296.707 96.415, 267.568 90.553, 228.517 88.032 C 210.875 86.893, 207.840 86.902, 187.500 88.148 M 116.250 145.663 C 113.732 146.196, 113.383 147.270, 115.250 148.738 C 117.675 150.645, 136.907 158, 139.468 158 C 142.750 158, 143.993 155.199, 141.515 153.387 C 138.572 151.235, 124.990 145.857, 121.616 145.508 C 119.902 145.331, 117.487 145.400, 116.250 145.663 M 100.299 152.250 C 95.307 157.731, 94.791 162.261, 98.447 168.500 C 114.434 195.780, 208.261 211.677, 281 199.430 C 310.764 194.418, 334.405 186.262, 344.995 177.351 C 348.818 174.134, 354 167.279, 354 165.438 C 354 164.051, 345.160 167.546, 328.968 175.335 C 304.482 187.114, 270.132 193.139, 226.500 193.308 C 191.213 193.444, 159.467 188.980, 134 180.300 C 114.454 173.638, 104 164.363, 104 153.684 C 104 149.429, 103.164 149.105, 100.299 152.250 M 300.250 162.491 C 293.209 165.551, 298.130 168.483, 309.051 167.734 C 319.823 166.996, 324.343 164.222, 318.435 161.975 C 314.692 160.552, 304.014 160.855, 300.250 162.491 M 273.323 167.696 C 272.125 167.929, 270.567 168.817, 269.860 169.668 C 268.791 170.957, 268.895 171.450, 270.479 172.608 C 272.738 174.260, 286.489 174.525, 290.516 172.994 C 298.413 169.991, 284.134 165.592, 273.323 167.696 M 240.441 172.425 C 238.557 173.809, 238.574 173.879, 241.031 174.817 C 246.406 176.870, 258.613 178.278, 260.816 177.098 C 263.751 175.528, 262.553 173.248, 258.151 172.025 C 252.743 170.523, 242.723 170.750, 240.441 172.425 M 331 200.675 C 321.372 205.070, 304.447 209.947, 288.500 212.920 C 262.601 217.749, 244.211 219.233, 217.500 218.649 C 203.750 218.349, 187.325 217.401, 181 216.544 C 161.342 213.880, 137.073 208.416, 125.248 203.991 C 122.320 202.896, 119.698 202, 119.422 202 C 119.145 202, 119.049 210.775, 119.209 221.501 C 119.369 232.227, 119.275 241.001, 119 240.999 C 118.725 240.997, 115.463 238.999, 111.750 236.559 L 105 232.122 105 236.496 C 105 241.163, 105.101 241.271, 116 248.322 L 119.500 250.586 119.500 258.791 C 119.500 264.918, 119.166 266.996, 118.180 266.998 C 116.777 267, 109.210 262.067, 106.575 259.432 C 105.142 257.999, 105.003 258.336, 105.031 263.179 C 105.068 269.309, 105.246 269.491, 118.472 276.964 L 126.500 281.500 126.207 288.720 C 125.915 295.901, 125.929 295.944, 128.707 296.558 C 130.243 296.898, 134.875 298.243, 139 299.547 C 176.433 311.378, 233.701 314.551, 280.500 307.387 C 291.088 305.767, 308.546 301.777, 314.972 299.510 C 317.088 298.763, 318.972 298.305, 319.160 298.491 C 319.347 298.677, 319.371 308.926, 319.214 321.267 L 318.928 343.704 308.714 346.403 C 281.042 353.715, 254.787 356.409, 217.863 355.725 C 185.056 355.116, 165.273 352.430, 140.750 345.252 L 132 342.691 132 321.368 C 132 300.354, 131.967 300.025, 129.750 298.591 C 128.512 297.790, 126.258 296.830, 124.741 296.457 C 123.223 296.084, 121.704 295.330, 121.365 294.782 C 120.986 294.168, 121.565 294.045, 122.875 294.460 C 124.380 294.938, 125 294.708, 125 293.674 C 125 291.903, 122.029 290.556, 121.930 292.281 C 121.891 292.952, 121.473 292.600, 121 291.500 C 120.180 289.592, 120.137 289.603, 120.070 291.750 C 120.032 292.988, 119.438 293.998, 118.750 293.996 C 117.014 293.991, 111.048 290.311, 107.750 287.211 L 105 284.626 105.007 290.063 C 105.014 296.008, 104.599 295.530, 115.697 302.371 L 119.894 304.958 119.697 312.977 C 119.589 317.387, 119.191 320.997, 118.813 320.998 C 118.435 320.999, 115.210 319.003, 111.646 316.563 C 104.712 311.816, 104 311.950, 104 317.998 C 104 321.162, 108.253 325.088, 115.848 328.937 C 119.892 330.987, 120.155 331.363, 119.609 334.320 C 119.287 336.069, 119.400 339.863, 119.862 342.750 C 120.454 346.455, 120.372 348, 119.583 348 C 118.153 348, 111.320 343.480, 107.750 340.173 L 105 337.626 105 343.224 L 105 348.821 113.765 354.352 C 118.586 357.394, 123.311 360.182, 124.265 360.548 C 126.561 361.429, 126.683 367, 124.406 367 C 123.530 367, 122.543 368.012, 122.213 369.250 C 121.614 371.494, 121.611 371.494, 120.906 369 C 120.216 366.558, 120.194 366.569, 119.981 369.500 C 119.861 371.150, 119.816 372.837, 119.882 373.250 C 120.123 374.782, 117.731 373.911, 113.276 370.846 C 110.755 369.111, 107.861 366.861, 106.846 365.846 C 105.051 364.051, 105 364.152, 105 369.449 C 105 375.482, 105.881 376.500, 116.250 382.460 C 118.863 383.962, 120.768 385.566, 120.484 386.026 C 120.200 386.486, 120.494 387.187, 121.138 387.585 C 121.869 388.037, 122.041 387.876, 121.595 387.155 C 120.651 385.626, 122.195 385.681, 124.276 387.250 C 125.480 388.159, 126.011 390.389, 126.217 395.414 L 126.500 402.329 130 403.504 L 133.500 404.679 133.636 419.590 L 133.773 434.500 144.636 438.304 C 162.680 444.622, 182.208 448.297, 206.530 449.951 C 214.764 450.511, 222.063 450.976, 222.750 450.985 C 223.515 450.994, 224 449.642, 224 447.500 C 224 444.099, 223.889 444, 220.107 444 C 217.480 444, 216.017 443.486, 215.607 442.418 C 214.555 439.677, 214.928 421.162, 216.049 420.470 C 217.464 419.595, 249.300 419.895, 250.172 420.791 C 250.552 421.181, 251.112 426.091, 251.417 431.703 C 251.945 441.410, 251.864 441.982, 249.763 443.453 C 248.549 444.304, 246.080 445, 244.277 445 C 241.400 445, 241 445.323, 241 447.647 L 241 450.295 251.637 449.607 C 284.592 447.476, 321.028 436.668, 335.516 424.726 L 339 421.854 339 400.936 L 339 380.018 342.488 377.759 C 345.813 375.605, 345.976 375.228, 345.988 369.646 L 346 363.793 342.465 366.896 C 340.521 368.603, 338.787 370, 338.611 370 C 338.435 370, 338.338 366.460, 338.395 362.133 C 338.500 354.268, 338.501 354.265, 342.157 351.635 C 345.495 349.234, 345.845 348.522, 346.157 343.500 C 346.346 340.474, 346.247 337.998, 345.937 337.999 C 345.627 337.999, 344.081 339.350, 342.500 341 C 339.830 343.787, 336.096 345.272, 337.510 342.985 C 337.855 342.426, 338.150 338.605, 338.166 334.493 L 338.196 327.018 342.098 324.825 C 345.948 322.661, 346 322.552, 346 316.712 L 346 310.793 342.250 314.094 L 338.500 317.396 338 311.948 C 337.725 308.952, 337.146 306.629, 336.714 306.786 C 336.282 306.943, 335.302 306.445, 334.536 305.679 C 333.345 304.488, 334.064 303.676, 339.482 300.087 L 345.821 295.889 346.161 290.443 C 346.347 287.448, 346.317 284.998, 346.094 284.999 C 345.871 284.999, 344.214 286.125, 342.411 287.500 C 340.608 288.875, 338.986 290, 338.806 290 C 338.626 290, 338.562 286.288, 338.663 281.750 C 338.847 273.520, 338.857 273.494, 342.387 271 C 345.677 268.676, 345.928 268.123, 345.963 263.131 L 346 257.763 342.567 260.381 C 340.678 261.822, 338.983 263, 338.798 263 C 338.614 263, 338.472 259.183, 338.482 254.519 L 338.500 246.037 342.250 242.946 C 345.442 240.315, 346 239.260, 346 235.859 L 346 231.864 343.250 233.798 C 341.738 234.861, 338.925 236.494, 337 237.426 L 333.500 239.120 336 237.118 C 338.489 235.125, 338.501 235.033, 338.724 216.558 C 338.894 202.435, 338.655 198.020, 337.724 198.082 C 337.051 198.127, 334.025 199.294, 331 200.675 M 131.815 265.249 C 131.988 277.487, 132.438 287.805, 132.815 288.177 C 134.101 289.448, 151.478 293.878, 163 295.873 C 179.550 298.738, 199.193 300.800, 217 301.541 C 245.743 302.736, 287.874 298.026, 312.250 290.891 L 319 288.915 319 266.072 L 319 243.228 308.250 246.126 C 282.017 253.195, 261.278 255.515, 225 255.436 C 196.931 255.375, 194.530 255.218, 175.500 252.208 C 164.500 250.467, 150.377 247.684, 144.116 246.022 C 137.854 244.360, 132.454 243, 132.116 242.999 C 131.777 242.998, 131.642 253.011, 131.815 265.249 M 327.750 252.299 C 326.238 252.897, 325 253.761, 325 254.219 C 325 254.677, 326.350 254.353, 328 253.500 C 329.650 252.647, 331 251.735, 331 251.474 C 331 251.213, 330.887 251.048, 330.750 251.106 C 330.613 251.165, 329.262 251.702, 327.750 252.299 M 121.083 252.365 C 121.313 252.565, 122.625 253.265, 124 253.920 C 126.357 255.042, 126.389 255.022, 124.559 253.555 C 122.966 252.279, 119.711 251.164, 121.083 252.365 M 150 267 C 146.962 270.038, 147.420 274.334, 151.114 277.442 C 153.298 279.281, 154.865 279.869, 156.364 279.413 C 159.983 278.313, 162 275.845, 162 272.519 C 162 266.212, 154.320 262.680, 150 267 M 291.343 267.566 C 284.754 274.155, 294.989 284.318, 301.811 277.961 C 304.984 275.005, 304.769 269.750, 301.365 267.073 C 297.833 264.294, 294.448 264.461, 291.343 267.566 M 171.016 271.707 C 167.324 276.400, 170.843 283, 177.038 283 C 180.805 283, 184.366 278.601, 183.479 275.043 C 181.871 268.599, 174.924 266.739, 171.016 271.707 M 193.189 273.039 C 188.405 277.495, 191.580 285.333, 198.169 285.333 C 204.572 285.333, 207.410 277.041, 202.365 273.073 C 199.031 270.450, 195.980 270.438, 193.189 273.039 M 330 294 C 329.099 294.582, 328.975 294.975, 329.691 294.985 C 330.346 294.993, 331.160 294.550, 331.500 294 C 332.267 292.758, 331.921 292.758, 330 294 M 294.030 320.286 C 292.672 320.970, 290.872 322.760, 290.030 324.264 C 288.657 326.720, 288.657 327.280, 290.030 329.736 C 294.165 337.127, 304 334.974, 304 326.677 C 304 321.600, 298.468 318.054, 294.030 320.286 M 149.557 322.223 C 147.318 325.419, 147.636 328.727, 150.455 331.545 C 155.204 336.295, 162 333.678, 162 327.098 C 162 322.361, 159.581 320, 154.728 320 C 152.126 320, 150.677 320.623, 149.557 322.223 M 173.736 323.692 C 172.766 323.945, 171.268 325.514, 170.408 327.179 C 168.409 331.043, 169.936 335.317, 173.902 336.959 C 182.178 340.387, 187.977 328.625, 180.035 324.518 C 177.009 322.953, 176.716 322.915, 173.736 323.692 M 193.167 327.750 C 188.261 331.930, 191.444 340, 198 340 C 199.667 340, 201.889 339.111, 203 338 C 204.111 336.889, 205 334.667, 205 333 C 205 327.012, 197.789 323.813, 193.167 327.750 M 328.824 347.882 C 319.660 352.874, 318.903 354.034, 327.676 349.642 C 331.622 347.666, 335.136 345.589, 335.485 345.025 C 336.262 343.767, 336.815 343.530, 328.824 347.882 M 129.889 352.750 C 131.904 354.421, 132.011 355.493, 132.250 376.470 L 132.500 398.440 142.500 401.229 C 167.886 408.310, 194.427 411.436, 228 411.302 C 260.717 411.172, 288.680 407.710, 311.335 400.984 L 318.928 398.730 319.214 376.115 C 319.371 363.677, 319.448 353.373, 319.384 353.217 C 319.320 353.062, 314.595 354.273, 308.884 355.908 C 282.307 363.520, 256.258 366.427, 221 365.717 C 186.876 365.030, 164.060 361.849, 140.343 354.471 C 127.482 350.470, 127.055 350.400, 129.889 352.750 M 150.455 376.455 C 149.105 377.805, 148 380.075, 148 381.500 C 148 384.815, 152.159 389, 155.455 389 C 161.733 389, 164.437 380.062, 159.365 376.073 C 155.905 373.351, 153.453 373.456, 150.455 376.455 M 292.694 376.026 C 289.224 378.756, 288.587 381.302, 290.467 384.936 C 293.285 390.386, 301.122 390.318, 303.432 384.823 C 305.064 380.942, 304.462 378.508, 301.242 375.976 C 298.055 373.468, 295.930 373.481, 292.694 376.026 M 171.690 380.453 C 165.848 386.295, 172.667 395.943, 179.805 391.936 C 186.226 388.332, 184.206 379.835, 176.775 379.197 C 174.571 379.008, 172.664 379.478, 171.690 380.453 M 193 383 C 190.198 385.802, 190.317 391.408, 193.223 393.443 C 200.840 398.779, 209.641 388.796, 202.365 383.073 C 199.039 380.456, 195.571 380.429, 193 383 M 120.293 401 C 120.325 405.297, 120.515 406.643, 120.737 404.151 C 121.114 399.920, 121.177 399.850, 123.062 401.556 C 124.938 403.254, 125 403.215, 125 400.322 C 125 398.332, 124.499 397.333, 123.500 397.333 C 122.675 397.333, 121.947 397.821, 121.882 398.417 C 121.817 399.012, 121.420 398.150, 121 396.500 C 120.459 394.374, 120.253 395.686, 120.293 401 M 359.779 429.844 C 358.843 442.920, 352.824 452.079, 339.290 461.018 C 320.214 473.618, 288.612 481.881, 249.250 484.560 C 241.943 485.057, 239 485.626, 239 486.540 C 239 490.023, 243.298 500.916, 246.518 505.590 C 252.848 514.781, 263.048 520.257, 279.042 523.052 C 290.314 525.022, 319.382 524.538, 338.288 522.065 C 346.972 520.929, 354.509 520, 355.038 520 C 355.567 520, 356 521.350, 356 523 C 356 525, 356.500 526, 357.500 526 C 358.431 526, 359 525.057, 359 523.514 C 359 521.483, 360.083 520.482, 364.927 518.037 C 370.364 515.292, 373.300 512.981, 371.309 513.013 C 370.864 513.020, 367.800 513.863, 364.500 514.886 C 361.200 515.909, 355.944 517.057, 352.821 517.436 L 347.141 518.126 346.477 513.695 C 344.915 503.276, 354.797 494.747, 378.648 485.930 C 410.262 474.244, 418.056 470.522, 424.822 463.882 C 426.649 462.089, 428.827 459.302, 429.661 457.689 C 434.607 448.124, 422.367 437.155, 399.280 430.464 C 390.861 428.024, 365.813 423, 362.068 423 C 360.559 423, 360.190 424.103, 359.779 429.844 M 328 443.139 C 309.379 452.831, 281.687 459.311, 249.361 461.542 L 239.222 462.242 238.622 465.871 C 237.326 473.708, 236.796 473.340, 248.250 472.560 C 279.755 470.415, 304.892 464.566, 324.198 454.889 C 334.803 449.573, 339 445.747, 339 441.396 C 339 439.528, 338.663 438.044, 338.250 438.098 C 337.837 438.151, 333.225 440.420, 328 443.139 M 119 444.822 L 119 448.672 128.750 453.730 C 143.318 461.288, 156.414 465.367, 177.500 468.915 C 189.251 470.892, 211.001 473, 219.645 473 L 224 473 224 468 C 224 465.250, 223.662 462.993, 223.250 462.985 C 222.838 462.976, 215.750 462.523, 207.500 461.978 C 187.609 460.663, 173.465 458.580, 156.500 454.467 C 140.603 450.612, 133.239 448.159, 124.849 443.924 L 119 440.971 119 444.822 M 374 512.883 C 374 513.369, 375.229 514.002, 376.731 514.289 C 379.285 514.777, 379.338 514.720, 377.540 513.405 C 375.342 511.799, 374 511.601, 374 512.883 M 387.500 521.344 C 383.100 523.162, 378.150 525.386, 376.500 526.285 L 373.500 527.920 376.368 527.960 C 378.315 527.987, 380.440 529.204, 382.990 531.755 L 386.745 535.510 388.290 532.817 C 389.140 531.336, 391.735 529.156, 394.056 527.971 C 397.834 526.044, 398.732 525.945, 402.604 527.029 C 407.020 528.266, 410 527.869, 410 526.044 C 410 525.256, 397.023 517.935, 395.775 518.018 C 395.624 518.028, 391.900 519.525, 387.500 521.344 M 409.500 534.567 C 406.750 535.891, 403.038 537.256, 401.250 537.599 C 399.462 537.942, 398 538.540, 398 538.927 C 398 539.315, 400.628 540.888, 403.839 542.423 L 409.678 545.214 417.089 541.986 C 427.750 537.343, 427.972 537.047, 422.830 534.356 C 417.429 531.530, 415.748 531.557, 409.500 534.567 M 419.905 547.250 C 416.295 549.082, 413.359 551.264, 413.177 552.250 C 412.733 554.649, 414.014 554.467, 421.522 551.063 C 426.450 548.828, 428 547.632, 428 546.063 C 428 543.345, 427.438 543.428, 419.905 547.250" stroke="none" fill="black" fill-rule="evenodd"/>
</svg>