<svg xmlns="http://www.w3.org/2000/svg" viewBox="0 0 64 64" fill="none">
  <path d="M10 16h44a6 6 0 0 1 6 6v22a6 6 0 0 1-6 6H30l-12 10v-10h-8a6 6 0 0 1-6-6V22a6 6 0 0 1 6-6Z" stroke="currentColor" stroke-width="4" stroke-linejoin="round"/>
  <path d="m18 28 14 10 14-10" stroke="currentColor" stroke-width="4" stroke-linecap="round" stroke-linejoin="round"/>
</svg>
<svg xmlns="http://www.w3.org/2000/svg" width="100%" height="auto" viewBox="0 0 594 427" version="1.1">
	<path d="M 225 51.628 C 217.974 52.980, 207.522 57.021, 140 84.494 C 118.825 93.109, 92.050 103.999, 80.500 108.694 C 56.175 118.581, 51.292 120.927, 46.777 124.891 C 38.538 132.125, 32.218 145.301, 29.923 160.023 C 26.116 184.458, 38.507 218.182, 58.819 238.669 C 77.643 257.655, 101.674 265.939, 120.945 260.085 C 136.659 255.312, 276.090 193.474, 283.529 187.979 C 298.406 176.988, 306.421 160.309, 306.886 139.369 L 307 134.237 311.276 133.161 C 331.321 128.113, 352.911 132.815, 360.238 143.823 C 363.470 148.680, 364.244 153.481, 362.476 157.713 C 358.668 166.828, 350.343 172.228, 305.512 194.667 C 255.538 219.680, 242.136 227.864, 227.996 242.004 C 215.761 254.239, 211.520 263.570, 212.173 276.818 C 213.143 296.484, 228.203 310.811, 253.500 316.132 C 264.507 318.447, 274.963 318.242, 288.230 315.452 C 292.025 314.653, 295.694 314, 296.383 314 C 297.072 314, 299.164 317.938, 301.031 322.750 C 305.797 335.032, 316.218 350.236, 326.024 359.213 C 342.911 374.674, 358.449 380.906, 377 379.657 C 387.481 378.952, 391.290 377.506, 415.500 365.036 C 425.950 359.653, 457.675 343.424, 486 328.971 C 517.360 312.969, 539.770 300.918, 543.305 298.156 C 554.040 289.765, 559.900 279.386, 562.539 264.090 C 569.378 224.435, 541.769 178.439, 504.500 167.403 C 496.498 165.033, 482.475 165.038, 474.500 167.412 C 471.200 168.395, 460.762 172.972, 451.304 177.583 C 437.285 184.417, 434.174 186.308, 434.465 187.818 C 434.661 188.837, 434.492 190.204, 434.089 190.856 C 432.856 192.852, 423.509 195.745, 419.101 195.496 C 416.270 195.337, 414.177 195.860, 412.561 197.131 C 411.254 198.159, 409.913 199, 409.581 199 C 409.250 199, 407.071 199.842, 404.739 200.872 C 402.408 201.902, 395.550 204.778, 389.500 207.264 C 365.238 217.235, 354.934 221.816, 322 237.274 C 304.778 245.357, 295 264.008, 294.641 289.459 L 294.500 299.418 288.500 300.657 C 276.823 303.070, 263.174 303.411, 255.500 301.481 C 239.947 297.571, 230.342 290.423, 227.499 280.643 C 224.528 270.425, 227.436 263.230, 239.177 251.745 C 252.729 238.489, 267.278 229.727, 314.073 206.637 C 331.358 198.108, 348.766 189.159, 352.757 186.750 C 372.904 174.589, 380.296 162.376, 377.030 146.643 C 374.839 136.090, 364.947 125.369, 353.424 121.057 C 342.215 116.864, 334.684 115.856, 322.565 116.930 C 316.479 117.469, 310.095 118.200, 308.378 118.555 L 305.255 119.199 303.024 111.849 C 297.973 95.217, 289.456 81.336, 277.469 70.200 C 264.289 57.955, 251.047 51.965, 236 51.443 C 231.325 51.280, 226.375 51.364, 225 51.628 M 229 62.376 C 229 62.582, 233.162 65.149, 238.250 68.080 C 254.222 77.281, 267.374 92.348, 275.381 110.619 C 281.116 123.704, 282.381 129.879, 282.526 145.500 C 282.631 156.812, 282.927 159.500, 284.065 159.500 C 286.430 159.500, 288.117 154.361, 289.075 144.235 C 291.089 122.947, 282.771 99.109, 267.330 81.918 C 261.751 75.709, 248.897 66.479, 242.483 64.080 C 237.736 62.304, 229 61.199, 229 62.376 M 204.686 69.019 C 201.340 70.021, 198.838 71.929, 199.489 72.982 C 199.746 73.397, 201.853 74.041, 204.172 74.412 C 210.815 75.474, 223.868 82.222, 231.293 88.433 C 244.389 99.387, 255.537 116.324, 261.007 133.573 C 262.516 138.333, 263.370 144.173, 263.738 152.241 C 264.322 165.049, 265.341 167.491, 268.598 163.892 C 271.481 160.706, 271.208 138.685, 268.147 127.500 C 265.467 117.710, 259.556 105.724, 253.016 96.816 C 240.840 80.236, 215.639 65.740, 204.686 69.019 M 127.247 107.153 C 126.561 107.839, 126 108.744, 126 109.165 C 126 109.585, 129.510 112.181, 133.800 114.932 C 142.537 120.537, 153.599 131.463, 159.685 140.500 C 171.321 157.777, 178.717 181.108, 177.849 197.799 C 177.507 204.373, 177.547 204.500, 180 204.500 C 182.196 204.500, 182.582 203.953, 183.176 200 C 184.236 192.943, 184.105 179.570, 182.899 171.692 C 179.150 147.199, 160.391 120.472, 139.716 110.166 C 131.961 106.301, 128.851 105.549, 127.247 107.153 M 108.175 118.225 C 105.904 120.496, 107.066 121.925, 114.250 125.695 C 124.013 130.817, 137.051 143.722, 143.344 154.491 C 152.909 170.858, 157.938 187.415, 157.978 202.668 C 157.990 207.161, 158.273 211.548, 158.607 212.418 C 159.508 214.766, 162.662 214.333, 163.474 211.750 C 164.886 207.264, 164.931 187.562, 163.546 180.443 C 159.512 159.699, 145.939 138.193, 129.461 126.435 C 119.954 119.651, 110.425 115.975, 108.175 118.225 M 65.844 125.363 C 59.549 127.665, 53.302 131.827, 50.275 135.737 C 42.171 146.200, 39.634 154.421, 39.699 170 C 39.790 191.657, 48.497 212.823, 64.767 230.939 L 69.652 236.378 73.576 234.015 C 75.734 232.716, 77.653 231.541, 77.839 231.404 C 78.025 231.267, 76.297 229.456, 73.997 227.379 C 65.602 219.794, 56.346 204.249, 52.038 190.500 C 48.931 180.586, 48.221 166.205, 50.455 158.465 C 54.422 144.721, 61.327 137.115, 71.820 134.930 C 84.553 132.278, 97.859 137.705, 111.048 150.929 C 120.737 160.643, 125.838 168.432, 130.025 179.907 C 139.764 206.591, 134.183 231.225, 116.500 239.610 C 110.812 242.307, 101.339 242.732, 94.500 240.598 C 90.945 239.488, 90.031 239.580, 86.280 241.425 C 83.959 242.566, 82.195 243.950, 82.361 244.500 C 82.527 245.050, 85.776 246.848, 89.581 248.494 C 95.807 251.189, 97.551 251.489, 107 251.494 C 116.560 251.500, 117.973 251.251, 122.784 248.716 C 136.872 241.293, 144.331 226.702, 144.365 206.500 C 144.392 190.171, 140.032 175.493, 130.700 160.500 C 119.907 143.162, 104.321 130.325, 88.500 125.745 C 81.996 123.863, 70.478 123.668, 65.844 125.363 M 482.661 175.739 C 482.326 176.281, 485.153 178.095, 488.943 179.769 C 510.270 189.189, 526.351 207.098, 535.638 231.771 C 538.682 239.856, 541.084 255.895, 540.333 263.113 C 539.683 269.351, 541.010 271.417, 543.846 268.583 C 546.482 265.949, 546.577 242.943, 543.994 232.920 C 537.576 208.020, 519.048 185.774, 498.246 177.991 C 491.541 175.482, 483.535 174.326, 482.661 175.739 M 457.175 184.590 C 454.046 186.781, 455.756 188.571, 461.767 189.398 C 481.204 192.072, 503.685 212.036, 515.200 236.849 C 519.863 246.897, 521.930 255.301, 522.562 266.783 C 522.822 271.505, 523.273 275.607, 523.565 275.899 C 523.857 276.190, 524.862 275.947, 525.798 275.358 C 530.123 272.636, 529.369 252.692, 524.356 237.213 C 518.159 218.077, 504.842 201.176, 487.722 190.718 C 476.497 183.861, 462.286 181.010, 457.175 184.590 M 119.238 193.308 C 116.893 196.164, 111.356 203.100, 106.933 208.722 C 102.509 214.345, 97.227 220.334, 95.195 222.032 L 91.500 225.119 95.493 228.514 L 99.486 231.908 102.336 229.204 C 103.903 227.717, 107.806 222.900, 111.009 218.500 C 114.213 214.100, 117.771 209.934, 118.916 209.242 C 122.105 207.316, 127 200.006, 127 197.171 C 127 194.389, 124.920 187.966, 124.049 188.058 C 123.747 188.090, 121.582 190.452, 119.238 193.308 M 386.667 221.667 C 384.958 223.376, 386.299 225.747, 389.864 227.320 C 396.546 230.268, 406.150 236.979, 412.812 243.354 C 430.867 260.632, 441.621 282.097, 444.311 306.223 C 445.329 315.353, 445.885 317.547, 447.248 317.809 C 449.716 318.285, 450.527 314.120, 450.325 302 C 450.210 295.107, 449.435 288.752, 448.070 283.500 C 440.955 256.140, 419.381 231.517, 395.189 223.145 C 388.430 220.806, 387.661 220.672, 386.667 221.667 M 368.128 234.845 C 365.801 236.412, 367.297 238.020, 373.386 240.495 C 400.820 251.645, 423.753 285.488, 425.877 317.957 C 426.399 325.928, 426.784 327.532, 428.247 327.812 C 431.280 328.391, 432.235 323.542, 431.754 310 C 431.378 299.440, 430.847 296.166, 428.327 288.904 C 420.595 266.620, 405.114 248.085, 386.377 238.679 C 379.048 234.999, 370.549 233.214, 368.128 234.845 M 335.281 241.906 C 316.150 246.830, 304 264.621, 304 287.710 C 304 292.270, 304.285 296, 304.634 296 C 304.983 296, 307.008 295.479, 309.134 294.842 C 312.816 293.738, 313 293.486, 313 289.525 C 313 273.453, 320.183 260.004, 331.818 254.290 C 336.603 251.940, 338.683 251.517, 345 251.607 C 367.194 251.925, 389.834 272.633, 400.093 302 C 401.986 307.418, 402.374 310.665, 402.426 321.500 C 402.486 334.240, 402.421 334.636, 399.176 341.284 C 395.117 349.602, 390.413 354.450, 383.086 357.864 C 361.825 367.775, 330.801 347.686, 318.800 316.239 C 315.415 307.367, 315.842 307.643, 309.290 310.094 L 307.080 310.920 308.908 316.232 C 320.047 348.608, 352.260 374.091, 377.181 370.241 C 394.275 367.601, 406.002 356.894, 410.586 339.744 C 415.385 321.786, 411.720 299.436, 400.831 280.262 C 395.540 270.946, 382.300 256.733, 373.681 251.118 C 362.403 243.770, 344.617 239.503, 335.281 241.906" stroke="none" fill="black" fill-rule="evenodd"/>
</svg>