<?xml version="1.0" encoding="UTF-8"?><svg id="uuid-e1a31312-5db7-469b-853b-f855ba6423bb" xmlns="http://www.w3.org/2000/svg" width="40" height="40" viewBox="0 0 40 40"><g id="uuid-015d58b4-d20e-4439-8cfe-1eb3283835af"><path d="M29.28,2.8c1.08-.17,1.88.27,2.66.95,3.58,3.08,6.09,12.44,5.46,16.99-.15,1.1-.67,2.66-1.8,3.11s-2.83-.22-4.04-.38c-3.48-.45-7.55-.07-10.95.78-.39.1-1.71.33-1.64.86.02.12.5.99.6,1.12.42.53.73.2,1.06.51.83.77-1.33,1.46-1.48,1.7-.05.08-.04.15,0,.23l3.09,5.02c.27.24.84,0,1.01.63.28,1.03-1.45,2.22-2.27,2.57-.57.24-1.88.61-2.34.11l-6.88-10.22c-.16-.08-3.01.74-3.5.82-3,.48-4.72-3.2-5.35-5.59-.5-1.9-.91-5.74,1.26-6.76l9.43-2.92c1.67.19,3.25-.53,4.76-1.19,2.77-1.23,5.7-3.01,7.8-5.22.84-.88,1.96-2.92,3.14-3.11ZM29.5,3.69c-.81.14-1.23,1.07-1.43,1.77-1.22,4.21,1.37,13.29,4.46,16.44,1.87,1.9,3.53,1.38,3.96-1.25.68-4.16-1.39-11.41-3.86-14.84-.68-.94-1.83-2.34-3.13-2.12ZM26.92,6.43c-.15-.12-.81.79-.93.9-2.31,2.22-5.68,4.01-8.65,5.18-.72.28-1.89.55-2.49.85-.55.28-.97,1.52-1.02,2.1-.18,1.97.36,4.21,1.41,5.88.11.18.67,1.14.89.85.07-.09-.52-1.01-.61-1.21s-.54-1.38-.48-1.47l5.14-1.78,1.41,2.83.63-.08c-.43-1.02-1.02-2.02-1.19-3.12l.81-.23c.32,1.05.9,2.01,1.43,2.96l.66-.14-1.25-3.03c-.01-.16.42-.27.57-.3.08-.01.15-.04.23-.01.14.46.33.92.54,1.36.14.29.68,1.45.85,1.61.04.04.07.08.14.07l.56-.15-1.26-3.27.81-.14,1.36,3.1.66-.14-1.19-3.3c.02-.1,1.6-.52,1.81-.65.08-.05.13-.07.13-.17-.4-1.57-.8-3.14-.97-4.76-.13-1.24-.19-2.53,0-3.75ZM13.98,13.19c-1.08.11-1.54,1.27-1.69,2.21-.31,1.88.19,4.13,1.07,5.81s2.62,3.78,4.64,3.43l-1.51-.83c-2.26-1.61-3.6-5.43-3.4-8.13.07-.88.36-1.78.9-2.49ZM13.31,22.94c.05-.06-.55-.9-.63-1.04-1.26-2.24-1.78-4.84-1.11-7.37l.3-.74c-.72.19-.93.43-1.17,1.13-.9,2.64.31,6.05,1.85,8.23l.77-.22ZM10.11,14.38c-.53,0-.7.38-.87.8-.85,2-.24,4.95.71,6.84.1.2.81,1.42.91,1.48.23.14.5-.2.74-.04-.42-1.02-1.05-1.94-1.45-2.98-.59-1.54-.89-3.45-.45-5.06.1-.37.29-.68.41-1.04ZM6.47,15.57c-.69.06-.68.16-.86.74-.71,2.32-.31,5.15.84,7.26.09.17.47.83.57.92.16.14.44.03.61-.06.07-.03.12.02.1-.13-1.63-2.5-2.54-5.89-1.27-8.74ZM4.98,16.02c-1.47.2-1.63,2.27-1.56,3.46.1,1.82.84,4.17,1.97,5.59l.78-.31c-1.81-2.5-2.34-5.84-1.19-8.74ZM28.63,21.37l-.44-.59.03.6h.41ZM25.06,22.27l-1.41.11-1.16-1.45-.26.47.89,1.09c-.55.1-1.1.15-1.65.25-1.04.19-2.59.7-3.57.48-.57-.13-1.11-.46-1.55-.83l-.22.07c.5.56,1.12,1.07,1.86,1.27,1.13.3,3.33-.48,4.6-.69,3.09-.5,6.36-.64,9.46-.24-.51-.57-1.64-.36-2.33-.54-.22-.06-.54-.45-.76-.58-.21.25-.13.26-.04.52-.35-.1-.92,0-1.21-.09-.35-.1-1.03-1.07-1.13-1.08-.67.28.04.67.36.96.08.07.18.07.05.17-.41-.03-.87.13-1.27,0-.3-.09-.98-1.05-1.04-1.01-.35.65.18.61.37,1.12ZM18.14,25.54l-.66.19c.25.75.87,2.44,1.85,1.56-.62-.39-.92-1.09-1.2-1.74ZM18.21,28.82l-.59.14s.21.57.26.67c.76,1.58,2,3.83,3.06,5.2.08.11.44.6.56.57.16-.1.56-.38.51-.59-1.51-1.82-2.69-3.92-3.79-6Z"/><path d="M26.92,6.43c-.19,1.22-.13,2.51,0,3.75.17,1.62.57,3.19.97,4.76,0,.11-.05.13-.13.17-.22.13-1.8.55-1.81.65l1.19,3.3-.66.14-1.36-3.1-.81.14,1.26,3.27-.56.15c-.07.01-.1-.03-.14-.07-.17-.16-.71-1.32-.85-1.61-.21-.44-.4-.89-.54-1.36-.08-.03-.16,0-.23.01-.15.03-.58.14-.57.3l1.25,3.03-.66.14c-.53-.96-1.11-1.91-1.43-2.96l-.81.23c.17,1.1.76,2.1,1.19,3.12l-.63.08-1.41-2.83-5.14,1.78c-.06.09.39,1.28.48,1.47.09.2.67,1.13.61,1.21-.22.29-.78-.67-.89-.85-1.05-1.67-1.59-3.91-1.41-5.88.05-.58.47-1.83,1.02-2.1.6-.3,1.78-.57,2.49-.85,2.97-1.17,6.34-2.97,8.65-5.18.11-.11.78-1.02.93-.9Z" fill="#fff"/><path d="M29.5,3.69c1.3-.22,2.45,1.18,3.13,2.12,2.47,3.43,4.54,10.68,3.86,14.84-.43,2.63-2.09,3.15-3.96,1.25-3.09-3.14-5.68-12.23-4.46-16.44.2-.7.62-1.63,1.43-1.77ZM35,21.42c.92-.83.76-3.83.62-4.99-.35-2.92-2.29-9.5-4.76-11.23-1.59-1.1-2.15,1.04-2.23,2.22-.25,3.71,1.18,9.01,3.2,12.13.54.83,2.04,2.89,3.17,1.87Z" fill="#fff"/><path d="M13.98,13.19c-.53.7-.83,1.61-.9,2.49-.2,2.71,1.14,6.52,3.4,8.13l1.51.83c-2.01.35-3.8-1.83-4.64-3.43s-1.38-3.93-1.07-5.81c.16-.94.61-2.1,1.69-2.21Z" fill="#fff"/><path d="M25.06,22.27c-.19-.5-.72-.47-.37-1.12.06-.04.74.92,1.04,1.01.4.12.86-.04,1.27,0,.13-.1.03-.11-.05-.17-.32-.29-1.03-.67-.36-.96.1.01.78.98,1.13,1.08.3.08.87-.01,1.21.09-.1-.26-.18-.27.04-.52.22.12.54.52.76.58.69.17,1.81-.03,2.33.54-3.1-.4-6.37-.25-9.46.24-1.26.2-3.47.99-4.6.69-.74-.2-1.36-.71-1.86-1.27l.22-.07c.44.38.98.71,1.55.83.99.22,2.53-.29,3.57-.48.55-.1,1.1-.15,1.65-.25l-.89-1.09.26-.47,1.16,1.45,1.41-.11Z" fill="#fff"/><path d="M4.98,16.02c-1.15,2.9-.62,6.24,1.19,8.74l-.78.31c-1.13-1.42-1.87-3.77-1.97-5.59-.07-1.19.1-3.26,1.56-3.46Z" fill="#fff"/><path d="M13.31,22.94l-.77.22c-1.54-2.18-2.76-5.59-1.85-8.23.24-.7.45-.94,1.17-1.13l-.3.74c-.66,2.53-.14,5.12,1.11,7.37.08.14.68.98.63,1.04Z" fill="#fff"/><path d="M10.11,14.38c-.12.36-.31.67-.41,1.04-.44,1.61-.14,3.52.45,5.06.4,1.03,1.03,1.96,1.45,2.98-.24-.16-.51.18-.74.04-.09-.06-.81-1.28-.91-1.48-.95-1.89-1.56-4.84-.71-6.84.18-.42.34-.8.87-.8Z" fill="#fff"/><path d="M6.47,15.57c-1.27,2.85-.37,6.24,1.27,8.74.03.15-.03.09-.1.13-.17.09-.45.2-.61.06-.1-.09-.48-.75-.57-.92-1.16-2.11-1.56-4.95-.84-7.26.18-.58.17-.69.86-.74Z" fill="#fff"/><path d="M18.21,28.82c1.1,2.08,2.29,4.18,3.79,6,.05.2-.35.49-.51.59-.11.03-.47-.46-.56-.57-1.06-1.37-2.3-3.62-3.06-5.2-.05-.1-.28-.64-.26-.67l.59-.14Z" fill="#fff"/><path d="M18.14,25.54c.28.65.57,1.36,1.2,1.74-.98.88-1.61-.8-1.85-1.56l.66-.19Z" fill="#fff"/><polygon points="28.63 21.37 28.22 21.38 28.19 20.78 28.63 21.37" fill="#fff"/><path d="M35,21.42c-1.14,1.03-2.64-1.04-3.17-1.87-2.02-3.12-3.45-8.42-3.2-12.13.08-1.19.64-3.33,2.23-2.22,2.47,1.72,4.41,8.31,4.76,11.23.14,1.17.3,4.16-.62,4.99ZM30.39,12.68c-.69.13-.17,2,.14,2.44.85,1.17,1.08-.21.89-1.04-.08-.34-.62-1.48-1.03-1.4Z"/><path d="M30.39,12.68c.42-.08.95,1.05,1.03,1.4.19.82-.04,2.21-.89,1.04-.32-.43-.84-2.31-.14-2.44Z" fill="#fff"/></g></svg>