<?xml version="1.0" encoding="UTF-8"?><svg id="uuid-956740b0-ae0e-46a2-a80c-01c66f19d203" xmlns="http://www.w3.org/2000/svg" width="40" height="40" viewBox="0 0 40 40"><g id="uuid-44f8d654-1c9a-4921-ad43-5a3c1856b375"><path d="M21.87,14.19c1.31-.47,3.79-.18,4.3,1.33.55,1.63-1,2.47-2.18,3.12-1.71.93-5.61,2.39-6.55,4.04-.65,1.15.22,2.02,1.31,2.31.85.22,1.57.13,2.42-.04-.1-1.39.21-2.84,1.43-3.64,3.08-1.29,6.1-2.97,9.19-4.21,4.82-1.93,8.46,5.79,4.36,8.15-2.88,1.65-6.24,2.97-9.2,4.5-.85.25-1.44.21-2.26-.11-1.6-.63-2.87-2.16-3.33-3.8-1.08.18-2.08.31-3.14-.07-1.34-.47-2.26-1.62-1.76-3.07.79-2.3,5.61-3.93,7.63-5.14.73-.44,1.8-1.05,1.05-2-.64-.82-2.23-.77-3.14-.49.07,1.53-.52,2.82-1.9,3.55-1.75.93-3.95,1.81-5.79,2.62-.87.38-3,1.46-3.81,1.55-3.91.39-7.08-6.12-3.56-8.54l9.56-3.96c2.67-.95,4.84,1.53,5.38,3.91ZM21.37,15c-.1-1.77-1.41-3.93-3.24-4.33-.08-.02-.87-.09-.69.03,1.2.09,2.27,1.17,2.85,2.16.41.7.72,1.51.76,2.32l.06-.25.25.06ZM19.82,15.49l.49.23c.47-.72.29-1.37-.01-2.1-.69-1.63-2.29-3.12-4.19-2.54l-7.5,3.06,1.14.38c1.42.74,2.44,2.23,2.78,3.79l.31-.22.19-.59c.1-.08.27.65.29.73.06.25.11.59.14.85.01.12-.05.71.09.71.41-.93.1-1.93-.22-2.84l.19-.27.34.25.22-.31c0,.13.13.3.13.4,0,.02-.21.05-.13.22.06,0,.14,0,.19.03.09.07.3,1.15.31,1.32,0,.27-.11.55-.06.83.15.02.2-.13.23-.23.16-.56.13-1.69-.01-2.26-.04-.17-.4-.85-.34-.93l.56-.25.59,1.24c.04-.25.45-.49.67-.57.06-.02.07-.09.14.01.17.28.17,1.55.16,1.9,0,.14-.15.45,0,.53.3-.91.36-1.89.11-2.82l-.39-.98c.65-.49.72.62,1,1l1.5-.99c.16,0,.29,1.54.22,1.76l.18.1c.31-1.03.2-2.2-.25-3.17l.28-.19c.13,0,.73,1.66.66,1.92ZM8.54,21.79c3.32,1.6,4.44-1.74,3.31-4.4-.68-1.6-2.74-3.59-4.6-2.65-1.76.9-1.34,3.61-.55,5.06.14.25.91,1.36,1.14,1.42.14.04.42-.16.52-.27-1.4-.99-2.49-3.93-1.25-5.34,1.43-1.63,3.66.61,4.27,2.01.84,1.94.35,4.63-2.29,3.87l-.54.3ZM37.2,21.54c.16-.04.07-.32.04-.45-.35-1.83-2.06-3.78-4.03-3.78l1.14.45c1.33.82,2.32,2.18,2.6,3.72l.12-.19.03.11.06-.03.03.17ZM30.59,25.12v1.09c.14.02.17-.1.21-.2.3-.81.08-2-.27-2.76l.37-.37-.25-.19.15-.16c.04.16.18.11.27.22.04.05.39.73.42.82.19.5.27,1.16.33,1.69.41-.31.22-.74.25-1.15,0-.12.13-1,.35-.65l.22,1.87c.02-.25.15-.48.18-.72.04-.37-.01-1.31-.13-1.66-.05-.16-.32-.46-.35-.65-.03-.21.33-.73.52-.52.11.12.28.87.37.87l1.53-.87c.03.29.15.56.18.85.04.31-.08.7.1.96.13.07.2-.46.21-.54.07-.76.02-1.57-.3-2.26l.31-.25c.29.75.62,1.54.56,2.37l.66-.87c.29-.44.04-1.03-.15-1.48-.75-1.78-2.43-3.35-4.5-2.79l-7.48,3.36c2.26.23,3.97,2.51,4.3,4.64.12,0,.03-.17.09-.25.05-.07.24-.05.32-.12l.28-.38c.12.44.09.9.12,1.34.02.27.14.45.22.09.16-.66.07-1.2-.08-1.85-.07-.29-.5-1.03.03-1.02.11,0,.49.46.34-.1l.12-.03.5,1.65ZM10.65,19.12c-.22-.13-.75.7-.89.86s-.42.36-.53.53c-.04.05-.11.09-.03.16l.43.24,1.15-1.41c.05-.07-.1-.37-.12-.38ZM22.43,25.53l-.49.22c.5,2.01,3.45,4.74,5.48,3.05,2.45-2.04-.38-7.69-3.58-7.31-1.58.19-2.28,1.88-2.09,3.29l.49-.13c-.08-1.02.44-2.38,1.56-2.58,2.8-.49,5.51,4.78,3.08,6.38-1.72,1.13-4.15-1.26-4.45-2.92Z"/><path d="M8.1,23.1c.02.13.06.23.04.37-.02.16-.48,1.46-.57,1.62-.03.05-.04.12-.09.16l-.21.02c-.09-.03-.15-.17-.15-.26,0-.13.63-1.78.7-1.85.09-.08.17-.08.28-.06Z"/><path d="M4.42,17.06c.04.15-.02.3-.16.36-.14.04-1.62-.38-1.81-.48-.15-.08-.24-.16-.2-.35.02-.07.08-.09.15-.1.29-.04,1.61.54,2.02.57Z"/><path d="M4.6,19.5c.22-.06.39.02.32.25-.04.12-1.51,1.04-1.64,1.04-.21,0-.3-.31-.13-.44.39-.15,1.09-.76,1.45-.85Z"/><path d="M8.95,23.42c.21-.05.23.18.24.33.02.33.04,1.03.02,1.35-.02.28-.24.54-.39.23-.05-.1-.06-1.54-.03-1.71.02-.09.07-.19.16-.21Z"/><path d="M5.86,23.78c0-.15-.02-.27.06-.41.03-.06.85-.87.9-.9.1-.06.18-.1.29-.03.08.06.07.16.05.24-.04.19-1.07,1.32-1.3,1.1Z"/><path d="M3.43,18.67l-.19-.43c.26,0,1.42-.28,1.15.25-.1.2-.73.11-.96.18Z"/><path d="M5.06,21.78c-.22-.36.54-.94.6-.39.03.34-.5.55-.6.39Z"/><path d="M2.68,18.3v.44c-.85.23-.8-.53,0-.44Z"/><path d="M4.43,16.62c-.26-.14-.38-.46-.37-.75.14-.16.41.65.37.75Z"/><path d="M30.59,25.12l-.5-1.65-.12.03c.15.55-.23.1-.34.1-.53-.01-.09.73-.03,1.02.15.65.24,1.18.08,1.85-.08.36-.2.18-.22-.09-.03-.44,0-.9-.12-1.34l-.28.38c-.08.07-.27.05-.32.12-.06.08.03.26-.09.25-.33-2.13-2.04-4.41-4.3-4.64l7.48-3.36c2.07-.55,3.75,1.02,4.5,2.79.19.45.43,1.03.15,1.48l-.66.87c.06-.83-.27-1.61-.56-2.37l-.31.25c.32.7.37,1.5.3,2.26,0,.08-.08.6-.21.54-.18-.25-.07-.65-.1-.96-.03-.28-.15-.56-.18-.85l-1.53.87c-.09,0-.27-.75-.37-.87-.19-.21-.55.31-.52.52.03.2.29.5.35.65.12.35.18,1.29.13,1.66-.03.25-.16.47-.18.72l-.22-1.87c-.21-.35-.34.53-.35.65-.02.42.16.85-.25,1.15-.06-.53-.14-1.19-.33-1.69-.04-.1-.38-.77-.42-.82-.09-.11-.23-.07-.27-.22l-.15.16.25.19-.37.37c.35.76.57,1.96.27,2.76-.04.1-.06.22-.21.2v-1.09Z" fill="#fff"/><path d="M19.82,15.49c.07-.26-.53-1.92-.66-1.92l-.28.19c.45.98.56,2.14.25,3.17l-.18-.1c.07-.22-.06-1.76-.22-1.76l-1.5.99c-.28-.38-.35-1.48-1-1l.39.98c.25.93.19,1.9-.11,2.82-.14-.07,0-.38,0-.53.01-.36.01-1.62-.16-1.9-.06-.1-.08-.03-.14-.01-.22.08-.63.32-.67.57l-.59-1.24-.56.25c-.05.08.3.76.34.93.14.57.17,1.7.01,2.26-.03.11-.09.26-.23.23-.05-.28.07-.56.06-.83,0-.17-.22-1.25-.31-1.32-.04-.03-.13-.03-.19-.03-.08-.17.13-.2.13-.22,0-.1-.14-.28-.13-.4l-.22.31-.34-.25-.19.27c.32.91.63,1.9.22,2.84-.15,0-.08-.59-.09-.71-.03-.26-.09-.6-.14-.85-.02-.08-.19-.81-.29-.73l-.19.59-.31.22c-.34-1.55-1.36-3.04-2.78-3.79l-1.14-.38,7.5-3.06c1.9-.58,3.5.91,4.19,2.54.31.73.49,1.38.01,2.1l-.49-.23Z" fill="#fff"/><path d="M22.43,25.53c.3,1.66,2.72,4.04,4.45,2.92,2.43-1.59-.28-6.87-3.08-6.38-1.12.2-1.64,1.56-1.56,2.58l-.49.13c-.18-1.41.52-3.11,2.09-3.29,3.19-.38,6.03,5.27,3.58,7.31-2.03,1.69-4.97-1.04-5.48-3.05l.49-.22Z" fill="#fff"/><path d="M8.54,21.79l.54-.3c2.64.76,3.13-1.93,2.29-3.87-.6-1.4-2.84-3.64-4.27-2.01-1.24,1.41-.15,4.35,1.25,5.34-.1.11-.37.31-.52.27-.23-.06-1-1.17-1.14-1.42-.79-1.44-1.21-4.16.55-5.06,1.86-.95,3.92,1.04,4.6,2.65,1.13,2.66.01,6-3.31,4.4Z" fill="#fff"/><path d="M21.37,15l-.25-.06-.06.25c-.04-.82-.35-1.63-.76-2.32-.58-.99-1.65-2.07-2.85-2.16-.18-.12.61-.05.69-.03,1.83.4,3.14,2.56,3.24,4.33Z" fill="#fff"/><path d="M37.2,21.54l-.03-.17-.06.03-.03-.11-.12.19c-.28-1.54-1.27-2.91-2.6-3.72l-1.14-.45c1.97,0,3.68,1.96,4.03,3.78.03.13.12.41-.04.45Z" fill="#fff"/><path d="M10.65,19.12s.18.31.12.38l-1.15,1.41-.43-.24c-.07-.07,0-.11.03-.16.12-.17.39-.36.53-.53s.67-.99.89-.86Z" fill="#fff"/></g></svg>