<?xml version="1.0" encoding="UTF-8"?><svg id="uuid-88cfe432-825a-49af-a58a-560c8993e87d" xmlns="http://www.w3.org/2000/svg" width="40" height="40" viewBox="0 0 40 40"><g id="uuid-9b7cf1df-ded3-4dc3-b27b-cce5ea5bf056"><path d="M23.28,3.37c.12.07.36.8.61.87l1-.23.13.08.34.75,1.17-.03.21.86c.17.22.84,0,1.1.18l-.05.88c.85.15.71.38.46,1.06-.17.46-.41.83-.74,1.19-.11.12-.36.22-.4.35-.07.22.02.61-.02.88-.04.28-.24.49-.27.76v15.7s.11.1.11.1c1.5.14,4.97.74,5.59,2.33.86,2.22-2.79,3.04-4.21,3.62-.49.2-1.22.42-1.43.95.43-.02.76-.42,1.19-.33.22.04.52.31.74.37.52.14,1.22.28,1.71.57.21.12.16.27.27.36.38.3,1.3.33,1.32.93,0,.12-.08.9-.13.96-.06.08-1.64.91-1.77.92-.2.02-.33-.04-.51-.1-.92-.32-1.9-1.04-2.85-1.35-.3-.24-.15-.69-.18-1.02-.74.14-1.49.28-2.24.34-2.92.25-6.37.24-6.93-3.37-.55-.14-1.12-.03-1.68-.08-2.11-.17-7.17-.95-7.53-3.57l-.02-17c-.04-.32-.3-.51-.42-.82-.36-.96-.04-1.65.55-2.41-.69-.75-1.24-1.77-.96-2.83l.69-.12.21-.93c.21-.15.77.24,1.04.07.13-.08.35-.61.42-.78l1.1.31.66-.79,1.02.41.84-.75.97.52c.24.02.7-.61.9-.66.29-.08.67.55,1.02.55.37,0,.75-.58,1.03-.56.19.02.56.58.83.62.41.07.83-.51,1.1-.49.28.07.58.66.83.69.33.05.84-.52,1.16-.49.28.03.54.77.85.82.26.04.92-.47,1.18-.32ZM9.99,8.25c-.12-.37-.47-.34-.31-.83.21-.66,2.21-1.27,2.85-1.42,2.84-.65,10.17-.66,12.23,1.71.74.85-.38,1.23-.44,1.55-.08.45.89.09,1.06.03,3.23-1.12,1.25-2.95-.77-3.85-3.67-1.64-10.67-2.03-14.4-.5-.67.27-1.79.9-1.88,1.71-.08.73.88,1.74,1.65,1.61ZM9.86,8.53c-.02.12.06.18.14.24.19.13,1.42.61,1.61.6.1,0,.18-.01.24-.11.02-.13-.02-.16-.11-.23-.4-.3-1.4-.65-1.89-.49ZM9.17,8.8c-.25.03-.52.43-.55.66-.09.64.63,1.19,1.12,1.49,3.38,2.05,12.29,2.08,15.66,0,.39-.24.98-.71.95-1.18-.82.33-1.58.8-2.41,1.1-3.36,1.24-8.53,1.21-11.97.25-1.12-.31-2.95-.86-2.81-2.32ZM22.93,9.58c-.1.02-.44.14-.46.23-.09.39,1.59.26,1.65,0,.07-.3-1.01-.25-1.19-.22ZM21,9.99c-.12.02-.44.1-.47.22-.08.36,1.6.3,1.65.07.07-.31-.99-.32-1.19-.29ZM20.03,10.4c-.2-.18-1.35-.27-1.57.02,0,.11,1.44.48,1.62.17.04-.04-.03-.17-.06-.19ZM10.2,12.39v2.58s.18.12-.03.1l-.93-.62c-.29,1.08,1.06.77,1.03,1.68,0,.24-.17.48,0,.73-.41,0-.74-.37-1.03-.62v.71s1.51.88,1.51.88c-.11.33-.11.77,0,1.1l-.28-.1.13-.04c.03-.2-.21-.2-.34-.27v.21c-.42-.02-.72-.38-1.03-.62v.74c.2.18.96.49,1.02.68.1.31-.18.69.01,1.02-.38,0-.7-.38-1-.58-.43.74.48,1.01.97,1.31-.03.41-.07.78.1,1.17-.15.11-.95-.52-1.07-.69-.04.2-.09.64.04.79.16.2,1.32.74,1.36.81.17.31-.08.51-.39.48-.09.09.07.45-.11.41-.15-.04-.61-.38-.75-.49-.09-.08-.08-.2-.18-.2-.25,1.06.75,1.16,1.41,1.65l.04.92.51.25v2.01c1.96.86,4.11,1.09,6.24,1.17v-.48s-.5,0-.5,0c-.05-.01-.12-.16-.12-.17v-1.38c0-.14.25-.1.31-.1h2.07c.07.04.09.09.1.17.03.17.09,1.16.06,1.3-.08.26-.52.28-.74.25v.35c2.27-.1,4.91-.45,6.72-1.93.17-.52-.13-2.61.1-2.93.07-.1.3-.18.4-.25v-.81s-.54.41-.54.41c0-.36.16-.7,0-1.06l.52-.38.1-.76c-.11-.12-.5.55-.69.41-.01-.05.07-.08.07-.1v-1.03l.54-.32v-.81s-.54.41-.54.41v-.64s-.34-.22-.34-.22l.86-.59.1-.76-.62.34.04-1.11.52-.44v-.66s-.56.34-.56.34c.16-.33-.06-.88.01-1.12s.83-.43.51-1.01l-.59.34c.21-.29.18-2.61.07-2.69-4.71,1.91-10.29,1.91-15.09.28ZM31.32,30.42c1.17-1.24-.87-2.02-1.82-2.3-.32-.1-2.6-.6-2.7-.5.2,1.92-1.57,2.92-3.13,3.45-1.64.56-3.48.75-5.2.82.08.94.6,1.81,1.44,2.24,1.13.57,3.12.54,4.38.44.75-.06,1.49-.24,2.24-.28v.41s.21,0,.21,0c-.12-.6.67-.48.9-.9l-1.72.34c-.34-1.02.69-1.58,1.47-1.94,1.12-.52,3.12-.92,3.95-1.8ZM25.36,28.65c-.51.23-.99.52-1.52.72-1.68.64-3.59.85-5.37.93l-.07.76c2.05-.11,4.48-.33,6.27-1.41.4-.24.8-.46.69-1ZM17.43,30.37c-2.46-.12-5.03-.35-7.23-1.52.03.16-.06.44.04.56.09.1,1.12.59,1.31.67,1.82.74,3.93.93,5.87.98v-.69ZM28.66,35.4c0-.33.58-.7.86-.69.08,0,.81.32.73-.04-.02-.08-.87-.49-1-.49-.38,0-1.08.51-1.48.59.07.12.27.06.44.15.2.1.29.34.46.47ZM31.42,35.4l-.79-.28c-.37.19-.72.29-1.11.41-.1.03-.12-.04-.1.14.27.02.58.36.84.33.12-.01,1.23-.5,1.15-.61ZM31.49,35.95c-.05-.05-1.27.45-1.03.69.21,0,1.29-.4,1.03-.69Z"/><path d="M10.2,12.39c4.8,1.63,10.37,1.63,15.09-.28.11.08.14,2.39-.07,2.69l.59-.34c.32.58-.43.78-.51,1.01s.15.8-.01,1.12l.55-.34v.66s-.51.44-.51.44l-.04,1.11.62-.34-.1.76-.86.59.35.22v.64s.55-.41.55-.41v.81s-.55.32-.55.32v1.03s-.08.05-.07.1c.19.14.58-.53.69-.41l-.1.76-.52.38c.17.36,0,.7,0,1.06l.55-.41v.81c-.12.07-.35.15-.42.25-.23.32.07,2.41-.1,2.93-1.8,1.48-4.45,1.83-6.72,1.93v-.35c.22.02.67,0,.74-.25.04-.13-.02-1.12-.06-1.3-.01-.08-.04-.13-.1-.17h-2.07c-.06,0-.31-.04-.31.1v1.38s.07.16.12.17h.5s0,.48,0,.48c-2.12-.08-4.28-.31-6.24-1.17v-2.01s-.5-.25-.5-.25l-.04-.92c-.66-.49-1.67-.6-1.41-1.65.1,0,.09.12.18.2.14.12.6.45.75.49.18.05.02-.31.11-.41.31.03.56-.17.39-.48-.04-.07-1.2-.61-1.36-.81-.13-.15-.08-.59-.04-.79.11.16.92.8,1.07.69-.17-.39-.13-.76-.1-1.17-.49-.3-1.4-.56-.97-1.31.3.2.62.58,1,.58-.2-.33.08-.71-.01-1.02-.06-.19-.82-.51-1.01-.68v-.74c.3.24.6.6,1.02.62v-.21c.13.07.37.08.34.27l-.13.04.28.1c-.11-.33-.11-.77,0-1.1l-1.52-.88v-.71c.3.25.62.61,1.03.62-.17-.25,0-.49,0-.73.03-.92-1.32-.6-1.03-1.68l.93.62c.21.02.03-.07.03-.1v-2.58ZM23.98,15.21c-3.51,1.07-7.44,1.17-11.04.46-.17-.03-1.91-.53-1.91-.43l.08,3.02c.05.13,1.08.39,1.29.44,2.42.56,5.23.68,7.69.43,1.32-.13,2.63-.37,3.89-.76v-3.17ZM23.98,22.17v-3s.14-.06-.03-.17c-.59.23-1.21.39-1.82.52-2.77.55-6.19.54-8.96,0-.77-.15-1.5-.43-2.27-.59.1.15.18.17.21.37.05.4-.09,2.68,0,2.79,4.15,1.26,8.7,1.2,12.88.08ZM23.98,25.96v-3s.18-.2-.03-.17c-.35.05-.89.29-1.28.38-3.2.74-7.15.72-10.33-.07-.13-.03-1.51-.51-1.52-.41l.27.28.03,2.93c.05.07,1.3.39,1.5.43,3.01.69,6.9.7,9.91.01.49-.11.96-.27,1.45-.38Z" fill="#fff"/><path d="M9.99,8.25c-.77.13-1.73-.88-1.65-1.61.09-.8,1.21-1.43,1.88-1.71,3.73-1.53,10.73-1.13,14.4.5,2.02.9,3.99,2.73.77,3.85-.18.06-1.14.43-1.06-.03.06-.33,1.18-.7.44-1.55-2.07-2.37-9.4-2.36-12.23-1.71-.64.15-2.64.76-2.85,1.42-.16.49.2.46.31.83ZM25.42,8.73c1.86-.6,1.02-1.73-.21-2.44-3.39-1.97-11.09-2.41-14.69-.92-.65.27-2.02,1.01-1.39,1.84.43-.63,1.11-1.01,1.8-1.3,3.39-1.43,9.67-1.18,12.95.53.84.44,2.05,1.17,1.54,2.29Z" fill="#fff"/><path d="M9.17,8.8c-.14,1.46,1.69,2.01,2.81,2.32,3.43.95,8.61.98,11.97-.25.83-.3,1.59-.78,2.41-1.1.03.47-.57.94-.95,1.18-3.37,2.08-12.28,2.05-15.66,0-.49-.3-1.21-.84-1.12-1.49.03-.23.29-.63.55-.66Z" fill="#fff"/><path d="M25.36,28.65c.11.54-.29.76-.69,1-1.79,1.08-4.23,1.3-6.27,1.41l.07-.76c1.79-.08,3.69-.29,5.37-.93.52-.2,1-.5,1.52-.72Z" fill="#fff"/><path d="M17.43,30.37v.69c-1.95-.06-4.06-.24-5.87-.98-.2-.08-1.23-.57-1.31-.67-.11-.12-.02-.4-.04-.56,2.2,1.16,4.77,1.39,7.23,1.52Z" fill="#fff"/><path d="M28.66,35.4c-.16-.13-.26-.37-.46-.47-.17-.09-.37-.03-.44-.15.4-.08,1.1-.59,1.48-.59.13,0,.98.41,1,.49.08.35-.65.04-.73.04-.27-.01-.85.35-.86.69Z" fill="#fff"/><path d="M31.42,35.4c.08.11-1.04.6-1.15.61-.26.02-.57-.31-.84-.33-.02-.18,0-.11.1-.14.4-.12.74-.22,1.11-.41l.79.28Z" fill="#fff"/><path d="M9.86,8.53c.49-.16,1.49.19,1.89.49.09.07.14.1.11.23-.06.1-.14.1-.24.11-.19.01-1.42-.47-1.61-.6-.09-.06-.17-.12-.14-.24Z" fill="#fff"/><path d="M21,9.99c.2-.03,1.26-.02,1.19.29-.06.23-1.73.29-1.65-.07.03-.13.34-.21.47-.22Z" fill="#fff"/><path d="M22.93,9.58c.17-.03,1.26-.08,1.19.22-.06.26-1.75.4-1.65,0,.02-.09.37-.21.46-.23Z" fill="#fff"/><path d="M20.03,10.4s.09.15.06.19c-.18.31-1.62-.07-1.62-.17.21-.29,1.36-.2,1.57-.02Z" fill="#fff"/><path d="M31.49,35.95c.26.29-.82.69-1.03.69-.24-.24.99-.74,1.03-.69Z" fill="#fff"/><path d="M23.98,25.96c-.49.11-.96.27-1.45.38-3.01.69-6.9.67-9.91-.01-.2-.05-1.45-.36-1.5-.43l-.03-2.93-.27-.28c0-.1,1.38.38,1.52.41,3.19.79,7.14.81,10.33.07.39-.09.92-.33,1.28-.38.22-.03.03.14.03.17v3ZM12.59,24.25c-.62.11-.47,1.16.24,1.01.56-.12.38-1.12-.24-1.01ZM22.38,24.25c-.56.1-.58.95,0,1.02.87.11.71-1.15,0-1.02ZM13.8,24.67c-.43.41.17,1.22.71.74s-.3-1.13-.71-.74ZM15.49,24.73c-.41.08-.48.79-.05.92.93.29.89-1.1.05-.92Z"/><path d="M23.98,15.21v3.17c-1.26.39-2.58.62-3.89.76-2.47.25-5.28.12-7.69-.43-.21-.05-1.24-.3-1.29-.44l-.08-3.02c0-.1,1.75.39,1.91.43,3.6.71,7.53.61,11.04-.46ZM12.52,16.74c-.61.14-.27,1.07.23.99.68-.11.48-1.15-.23-.99ZM22.85,17.6c.41-.51-.35-1.22-.81-.71-.5.56.42,1.19.81.71ZM13.97,17.02c-.37.11-.42.73-.03.9.91.39.96-1.18.03-.9ZM15.25,17.3c-.4.49.3,1.16.74.71.5-.52-.35-1.19-.74-.71Z"/><path d="M23.98,22.17c-4.18,1.13-8.72,1.19-12.88-.08-.09-.11.05-2.39,0-2.79-.03-.2-.11-.22-.21-.37.77.16,1.5.44,2.27.59,2.77.54,6.19.55,8.96,0,.62-.12,1.24-.28,1.82-.52.17.11.03.14.03.17v3ZM22.44,20.47c-.69.04-.65,1.05-.01,1.05.72,0,.66-1.09.01-1.05ZM12.45,20.53c-.38.12-.32.84.14.94.82.17.79-1.22-.14-.94ZM13.8,21.6c.43.43,1.18-.18.77-.67-.5-.59-1.23.21-.77.67ZM15.49,20.94c-.62.13-.38,1.17.37.92.46-.15.38-1.08-.37-.92Z"/><path d="M25.42,8.73c.52-1.11-.7-1.85-1.54-2.29-3.28-1.71-9.56-1.96-12.95-.53-.69.29-1.37.67-1.8,1.3-.62-.83.74-1.57,1.39-1.84,3.6-1.49,11.29-1.05,14.69.92,1.23.71,2.07,1.84.21,2.44Z"/><path d="M22.38,24.25c.7-.13.86,1.13,0,1.02-.57-.07-.55-.92,0-1.02Z" fill="#fff"/><path d="M12.59,24.25c.62-.11.8.9.24,1.01-.71.15-.86-.9-.24-1.01Z" fill="#fff"/><path d="M13.8,24.67c.41-.39,1.24.27.71.74s-1.14-.34-.71-.74Z" fill="#fff"/><path d="M15.49,24.73c.84-.17.88,1.21-.05.92-.43-.13-.35-.84.05-.92Z" fill="#fff"/><path d="M22.85,17.6c-.39.48-1.31-.14-.81-.71.46-.51,1.22.2.81.71Z" fill="#fff"/><path d="M15.25,17.3c.39-.48,1.24.19.74.71-.44.45-1.14-.21-.74-.71Z" fill="#fff"/><path d="M12.52,16.74c.71-.16.91.88.23.99-.5.08-.84-.86-.23-.99Z" fill="#fff"/><path d="M13.97,17.02c.93-.28.88,1.29-.03.9-.39-.17-.34-.79.03-.9Z" fill="#fff"/><path d="M22.44,20.47c.65-.04.71,1.05-.01,1.05-.64,0-.68-1.01.01-1.05Z" fill="#fff"/><path d="M13.8,21.6c-.46-.46.28-1.26.77-.67.41.49-.34,1.1-.77.67Z" fill="#fff"/><path d="M15.49,20.94c.74-.16.83.77.37.92-.75.25-.99-.79-.37-.92Z" fill="#fff"/><path d="M12.45,20.53c.93-.28.96,1.11.14.94-.46-.09-.52-.82-.14-.94Z" fill="#fff"/></g></svg>