<?xml version="1.0" encoding="UTF-8"?><svg id="uuid-91606e84-5500-4b68-a937-d922384f5475" xmlns="http://www.w3.org/2000/svg" width="40" height="40" viewBox="0 0 40 40"><g id="uuid-5ba5ea1a-a4a9-4ca5-884a-152b0fb84953"><path d="M22.52,2.71l.37.34c.18-.03.31-.15.5-.19.18-.03.57-.08.72.02.1.07.18.32.32.34s.46-.09.62-.09c.5,0,.51.37.65.76.36.05.82-.1.89.38s-.1.66.46.87c.01.38,0,.7-.09,1.06-.38,1.41-.89,2.45-1.89,3.53-.5.54-1.1.98-1.62,1.5,1.89.3,4.15.62,5.75,1.74,1.26.88,1.41,2.18.53,3.41v15.31c-.15,1.04.21,2.09-.49,2.97-.9,1.13-2.75,1.77-4.12,2.1-2.75.66-6.41.7-9.19.18-1.75-.33-4.42-1.05-5.36-2.7-.44-.78-.22-2.04-.21-2.93.03-4.95.02-9.9.03-14.85-.02-.18-.29-.44-.39-.62-.21-.41-.25-.95-.2-1.4.06-.63.65-1.04,1-1.52.05-.13-.12-.2-.19-.3-.16-.22-.17-.49-.13-.75.06-.36.4-.57.47-1,.08-.53-.03-.75.35-1.22.19-.24.66-.51.43-.85-.68,0-1.84-.16-1.99-.97-.02-.11.03-.24-.04-.32,0-.02,0-.05,0-.07.07-.79.51-1.28,1.13-1.71,1.33-.91,2.82-.78,4.26-.22.29-.51.8-.29,1.27-.43.17-.24.3-.65.59-.78.33-.15.71-.04,1.06-.1.18-.23.36-.65.66-.73.32-.09.77.07,1.03.02.11-.02.33-.29.44-.36.22-.16.37-.18.64-.16.17.02.43.15.56.13.14-.01.38-.24.55-.3.09-.03.26-.08.35-.09h.28ZM23.7,9.76s.23-.14.26-.17c1.11-.97,2.65-3.03,1.48-4.45-1.53-1.86-5.1-.99-7.01-.16-2.39,1.03-6.45,3.92-6.71,6.74-.2,2.16,1.76,2.46,3.45,2.21l-.91-.16c-2.76-.65-1.87-3.1-.56-4.72,1.97-2.44,6-4.61,9.19-4.27,1.51.16,2.45,1.27,2.04,2.79-.22.83-.78,1.5-1.25,2.19ZM21.29,5.27c-2.7.19-7.22,2.92-8.03,5.62-.33,1.11.07,2.29,1.35,2.4,1.97.18,3.75-.36,5.45-1.29,1.46-.79,3.76-2.55,4.21-4.21.59-2.16-1.24-2.65-2.98-2.53ZM14.7,6.38c.01-.06-.02-.07-.06-.1-.97-.74-2.85-.45-3.7.39-.96.95-.04,1.35.91,1.38.37-.07.97.25,1.13-.21-.47-.1-2.02,0-1.76-.84.03-.11.33-.42.44-.51.47-.38,1.23-.5,1.81-.38.41.08.81.35,1.23.26ZM11.87,7.14c.25.03.53.09.79.1.2.01.7.03.87,0,.1-.02.32-.31.29-.4-.03-.11-.56-.22-.68-.23-.29-.02-.6.02-.87.15-.07.04-.49.28-.41.38ZM28.82,14.04c-.59-.59-1.81-1.05-2.61-1.29-1.44-.43-2.95-.6-4.44-.74l-.86.52c1.5.06,3.01.15,4.48.5,1.06.26,3.89,1.16,2.23,2.56-1.19,1-4.54,1.37-6.09,1.45-2.19.11-4.73-.02-6.86-.54-.98-.24-3.19-.83-2.67-2.22-.1-.1-.29-.03-.39-.14-.08-.08-.02-.18-.1-.25-.62.34-.87.95-.38,1.54,1.03,1.25,4,1.82,5.56,2.02,2.88.38,6.8.26,9.59-.56,1.04-.31,4.01-1.38,2.56-2.84ZM11.45,19.55s.06.01.09.03c1.53,1.49,4.95,2.06,7.02,2.17,2.35.12,4.76,0,7.04-.65,1.12-.32,2.26-.76,3.09-1.59.02-.91.05-1.85-.02-2.76-1.54.85-3.31,1.26-5.05,1.5-2.9.39-6.23.29-9.09-.36-1.08-.24-2.08-.63-3.07-1.1v2.76ZM11.45,20.32v.79s.13.23.16.26c.25.27,1.09.7,1.45.85,3.64,1.61,10.46,1.65,14.08-.02.23-.11,1.52-.82,1.52-1.03v-.8l-.07-.04c-1.02.89-2.46,1.38-3.77,1.68-3.5.8-9.52.76-12.64-1.19l-.74-.5ZM28.7,21.99c-.23.07-.41.28-.62.41-2.62,1.68-7.41,1.94-10.43,1.61-1.67-.18-3.92-.62-5.37-1.47-.29-.17-.53-.42-.83-.55v.82c.63.64,1.49,1.02,2.32,1.31,3.49,1.22,8.56,1.26,12.09.18.77-.23,2.13-.76,2.68-1.34.05-.06.16-.23.16-.3v-.68ZM11.45,23.6v.89c.55.56,1.28.9,2.01,1.17,3.48,1.3,8.47,1.38,12.04.41,1.14-.31,2.29-.75,3.16-1.55,0-.28.04-.58-.04-.85-.79.61-1.69,1.01-2.64,1.3-3.17.99-7.09,1.02-10.33.36-1.49-.3-2.99-.77-4.18-1.74ZM11.45,25.31v.75c0,.28,1.16.87,1.42.99,3.43,1.59,9.19,1.7,12.78.61.77-.23,2.16-.74,2.75-1.27.13-.12.26-.29.26-.47v-.65c-1.38,1.03-3.06,1.55-4.74,1.84-3.3.57-8.66.42-11.62-1.28-.25-.14-.5-.37-.73-.5-.04-.02-.07-.05-.12-.03ZM11.45,26.99v.72c0,.19.94.76,1.13.86,3.3,1.7,9.02,1.78,12.56.88.81-.2,2.95-.94,3.42-1.61.16-.23.09-.56.13-.83l-.08-.05c-1.28.99-2.91,1.48-4.49,1.77-3.39.63-8.74.49-11.81-1.23-.11-.06-.82-.57-.87-.51ZM11.45,28.56v.72c0,.22.44.49.62.6,2.4,1.52,6.04,1.81,8.83,1.76,2.19-.04,4.97-.45,6.87-1.58.23-.13.92-.54.93-.81l-.05-.72c-1.09.96-2.6,1.42-4,1.73-3.52.77-9.5.69-12.61-1.32-.08-.05-.53-.43-.58-.38ZM28.66,30.17l-.83.55c-2.78,1.52-6.09,1.73-9.21,1.58-2.05-.1-4.68-.58-6.44-1.66-.25-.15-.47-.38-.74-.47v1.9s.39.54.45.59c1.38,1.41,5.22,2.02,7.14,2.08,2.56.09,6.59-.22,8.74-1.7.18-.12.88-.79.88-.98v-1.9ZM28.7,33.24c-.06-.06-.58.39-.68.46-2.52,1.68-7.18,1.95-10.13,1.68-1.88-.18-4.64-.77-6.14-1.96-.06-.05-.27-.31-.33-.24.08.9,1.12,1.51,1.86,1.86,3.37,1.6,9.71,1.62,13.15.22.89-.36,2.09-.97,2.27-2.01Z"/><path d="M11.45,19.55v-2.76c1,.47,1.99.86,3.07,1.1,2.86.65,6.19.75,9.09.36,1.74-.23,3.51-.65,5.05-1.5.07.91.04,1.84.02,2.76-.83.83-1.97,1.27-3.09,1.59-2.27.65-4.68.77-7.04.65-2.07-.11-5.49-.68-7.02-2.17-.02-.02-.06-.03-.09-.03Z" fill="#fff"/><path d="M28.66,30.17v1.9c0,.19-.69.85-.88.98-2.16,1.48-6.18,1.79-8.74,1.7-1.92-.06-5.76-.67-7.14-2.08-.06-.06-.45-.56-.45-.59v-1.9c.26.09.49.32.74.47,1.76,1.08,4.39,1.56,6.44,1.66,3.12.15,6.43-.06,9.21-1.58l.83-.55Z" fill="#fff"/><path d="M28.82,14.04c1.45,1.46-1.53,2.54-2.56,2.84-2.79.83-6.71.94-9.59.56-1.55-.2-4.52-.77-5.56-2.02-.49-.59-.23-1.2.38-1.54.08.07.03.17.1.25.1.1.28.03.39.14-.52,1.39,1.69,1.98,2.67,2.22,2.13.52,4.67.66,6.86.54,1.55-.08,4.9-.45,6.09-1.45,1.66-1.4-1.17-2.3-2.23-2.56-1.46-.35-2.98-.44-4.48-.5l.86-.52c1.5.14,3,.32,4.44.74.8.24,2.02.7,2.61,1.29Z" fill="#fff"/><path d="M11.45,23.6c1.2.96,2.69,1.43,4.18,1.74,3.24.66,7.16.63,10.33-.36.95-.3,1.85-.69,2.64-1.3.09.27.05.57.04.85-.88.8-2.03,1.24-3.16,1.55-3.57.97-8.56.89-12.04-.41-.73-.27-1.45-.61-2.01-1.17v-.89Z" fill="#fff"/><path d="M11.45,25.31c.06-.01.08.01.12.03.23.12.48.35.73.5,2.96,1.69,8.32,1.85,11.62,1.28,1.68-.29,3.36-.81,4.74-1.84v.65c0,.18-.13.36-.26.47-.59.53-1.98,1.03-2.75,1.27-3.59,1.09-9.35.99-12.78-.61-.26-.12-1.42-.71-1.42-.99v-.75Z" fill="#fff"/><path d="M11.45,26.99c.06-.06.76.44.87.51,3.07,1.72,8.42,1.85,11.81,1.23,1.58-.29,3.2-.78,4.49-1.77l.08.05c-.05.27.03.6-.13.83-.47.67-2.61,1.4-3.42,1.61-3.54.9-9.26.81-12.56-.88-.19-.1-1.13-.67-1.13-.86v-.72Z" fill="#fff"/><path d="M11.45,28.56s.5.33.58.38c3.11,2,9.1,2.09,12.61,1.32,1.4-.31,2.91-.77,4-1.73l.05.72c0,.27-.7.68-.93.81-1.9,1.13-4.68,1.54-6.87,1.58-2.78.05-6.43-.23-8.83-1.76-.18-.11-.62-.38-.62-.6v-.72Z" fill="#fff"/><path d="M11.45,20.32l.74.5c3.12,1.95,9.14,2,12.64,1.19,1.31-.3,2.75-.78,3.77-1.68l.07.04v.8c0,.21-1.29.92-1.52,1.03-3.62,1.67-10.44,1.63-14.08.02-.36-.16-1.2-.58-1.45-.85-.03-.03-.16-.25-.16-.26v-.79Z" fill="#fff"/><path d="M28.7,21.99v.68c0,.07-.1.24-.16.3-.55.58-1.91,1.1-2.68,1.34-3.53,1.08-8.6,1.04-12.09-.18-.83-.29-1.69-.67-2.32-1.31v-.82c.3.14.54.38.83.55,1.45.86,3.7,1.29,5.37,1.47,3.02.33,7.81.06,10.43-1.61.2-.13.38-.34.62-.41Z" fill="#fff"/><path d="M21.29,5.27c1.74-.12,3.58.37,2.98,2.53-.45,1.65-2.75,3.41-4.21,4.21-1.71.93-3.48,1.47-5.45,1.29-1.28-.12-1.69-1.29-1.35-2.4.81-2.7,5.33-5.43,8.03-5.62ZM23.31,6.6c-.41-.45-1.02-.6-1.61-.64-2.39-.16-5.66,1.75-7.03,3.66-1.82,2.54.02,3.68,2.58,3.14,2.04-.43,4.78-2.02,5.89-3.82.4-.65.76-1.7.17-2.34Z" fill="#fff"/><path d="M23.7,9.76c.47-.69,1.03-1.37,1.25-2.19.41-1.52-.53-2.63-2.04-2.79-3.19-.34-7.22,1.84-9.19,4.27-1.31,1.62-2.21,4.06.56,4.72l.91.16c-1.69.24-3.65-.06-3.45-2.21.26-2.82,4.32-5.71,6.71-6.74,1.91-.82,5.48-1.7,7.01.16,1.17,1.43-.37,3.49-1.48,4.45-.04.03-.23.2-.26.17Z" fill="#fff"/><path d="M28.7,33.24c-.18,1.03-1.38,1.65-2.27,2.01-3.44,1.4-9.78,1.37-13.15-.22-.74-.35-1.78-.96-1.86-1.86.07-.07.27.2.33.24,1.5,1.18,4.26,1.78,6.14,1.96,2.94.28,7.6,0,10.13-1.68.1-.06.62-.52.68-.46Z" fill="#fff"/><path d="M14.7,6.38c-.42.09-.82-.17-1.23-.26-.58-.12-1.34,0-1.81.38-.1.08-.4.39-.44.51-.25.84,1.3.74,1.76.84-.17.46-.77.14-1.13.21-.95-.03-1.87-.43-.91-1.38.85-.84,2.73-1.13,3.7-.39.04.03.07.04.06.1Z" fill="#fff"/><path d="M11.87,7.14c-.09-.1.33-.34.41-.38.27-.13.57-.17.87-.15.12,0,.65.12.68.23.03.09-.19.38-.29.4-.17.03-.67.01-.87,0-.25-.01-.53-.07-.79-.1Z" fill="#fff"/><path d="M23.31,6.6c.59.64.23,1.69-.17,2.34-1.12,1.8-3.85,3.39-5.89,3.82-2.55.54-4.4-.6-2.58-3.14,1.37-1.91,4.64-3.81,7.03-3.66.59.04,1.2.19,1.61.64ZM20.28,6.74c-1.55.15-3.7,1.54-4.67,2.73-1.28,1.57-.93,3.06,1.31,2.92,1.85-.12,4.42-1.69,5.41-3.25.49-.76.69-1.73-.24-2.24-.43-.24-1.31-.21-1.81-.16Z"/><path d="M20.28,6.74c.5-.05,1.38-.08,1.81.16.93.51.72,1.47.24,2.24-.99,1.56-3.56,3.13-5.41,3.25-2.24.14-2.58-1.35-1.31-2.92.97-1.2,3.12-2.58,4.67-2.73ZM20.14,7.43c-1.37.13-3.34,1.36-4.12,2.48-.44.64-.66,1.57.24,1.9,1.67.61,5.05-1.29,5.58-2.96.4-1.27-.7-1.51-1.7-1.42Z" fill="#fff"/><path d="M20.14,7.43c1-.09,2.1.15,1.7,1.42-.53,1.67-3.9,3.58-5.58,2.96-.91-.33-.68-1.27-.24-1.9.78-1.12,2.75-2.35,4.12-2.48Z"/></g></svg>