<?xml version="1.0" encoding="utf-8"?>
<!DOCTYPE svg PUBLIC "-//W3C//DTD SVG 1.0//EN" "http://www.w3.org/TR/2001/REC-SVG-20010904/DTD/svg10.dtd">
<svg version="1.0" xmlns="http://www.w3.org/2000/svg" width="1536px" height="1024px" viewBox="0 0 1536 1024" preserveAspectRatio="xMidYMid meet">
 <g fill="#000000">
  <path d="M726.77 854.03 c-30.89 -3.08 -55.02 -7.75 -80.49 -15.38 -36.18 -10.95 -62.03 -28.31 -71.88 -48.37 -3.82 -7.88 -3.94 -8.37 -3.57 -22.89 0.12 -8.12 0.49 -88 0.86 -177.48 l0.62 -162.71 -4.18 -5.54 c-6.40 -8.37 -8.74 -15.75 -8.62 -27.20 0 -12.68 2.71 -18.83 13.29 -30.03 4.43 -4.80 8.12 -9.11 8.12 -9.72 0 -0.49 -1.60 -2.58 -3.69 -4.55 -3.32 -3.20 -3.69 -4.31 -3.69 -11.08 0 -6.89 0.49 -8.25 4.80 -14.28 4.31 -6.03 4.80 -7.51 5.42 -16.74 0.74 -11.57 2.46 -15.02 11.20 -23.75 4.43 -4.31 5.66 -6.28 5.66 -9.48 0 -4.06 0 -4.06 -6.15 -4.06 -14.52 0 -28.68 -5.54 -33.35 -13.17 -4.31 -6.89 -4.18 -20.68 0.37 -29.42 7.63 -14.52 29.42 -29.29 48.37 -32.62 13.78 -2.34 32.37 -0.86 46.65 3.94 l12.06 3.94 2.71 -3.45 c2.58 -3.20 3.57 -3.57 12.80 -4.06 l10.09 -0.62 3.82 -6.52 c5.78 -10.09 8.25 -11.57 20.06 -11.57 l9.97 -0.12 4.18 -6.15 c6.40 -9.35 8.12 -10.22 20.68 -9.35 l10.71 0.62 6.03 -5.42 c5.42 -4.80 6.65 -5.42 12.06 -5.42 3.32 0 8.12 0.86 10.58 1.85 4.43 1.85 4.68 1.85 10.09 -2.09 4.31 -3.08 7.14 -4.06 12.43 -4.43 6.52 -0.49 7.14 -0.25 10.22 3.32 l3.20 3.94 4.92 -2.58 c3.32 -1.60 7.38 -2.46 12.43 -2.46 7.02 0 7.51 0.12 10.09 4.31 1.60 2.34 3.57 4.06 4.43 3.69 0.86 -0.25 4.92 -0.86 9.23 -1.35 9.35 -0.86 11.69 0.49 14.40 8.86 l2.09 6.03 7.88 0.62 c6.77 0.49 8 0.98 9.35 3.69 0.86 1.72 1.60 6.15 1.60 9.85 0 6.52 0.12 6.89 4.68 9.23 l4.55 2.46 -0.12 8.86 c0 5.29 -0.86 10.71 -2.09 13.54 -1.11 2.58 -2.95 8.49 -4.06 13.17 -6.28 25.97 -27.57 55.75 -57.35 79.88 -5.91 4.80 -10.58 8.86 -10.34 9.11 0.25 0.25 8.12 1.60 17.48 2.95 54.03 7.88 98.09 25.11 113.48 44.55 7.02 8.62 8.86 14.40 8.86 27.08 0 12.18 -1.97 18.22 -8.12 26.34 l-3.08 4.18 0.12 178.09 c0.25 196.06 0.74 182.15 -7.26 193.97 -18.22 26.34 -63.75 45.29 -131.08 54.40 -16.37 2.22 -86.77 3.32 -103.51 1.60z m84.06 -25.11 c33.72 -3.57 60.92 -9.35 83.45 -17.72 13.17 -5.05 31.38 -15.14 35.57 -19.94 1.97 -2.09 0.74 -1.85 -6.65 1.85 -33.48 16.86 -80.98 26.71 -137.35 28.55 -63.88 2.09 -126.89 -8.37 -165.91 -27.57 -13.05 -6.40 -13.91 -6.28 -3.57 0.86 40 27.08 122.09 41.48 194.46 33.97z m8.25 -31.88 c42.83 -5.66 70.40 -13.17 93.66 -25.35 13.91 -7.26 20.06 -12.06 25.72 -20.18 4.31 -6.28 4.31 -6.40 4.31 -19.69 l0 -13.29 -3.94 2.58 c-2.22 1.48 -8.49 4.92 -13.91 7.75 -25.48 13.05 -54.77 21.05 -96 26.34 -24.49 3.20 -88.37 3.20 -113.85 0.12 -48.12 -5.91 -90.22 -18.71 -112.86 -34.34 l-5.29 -3.57 0 13.29 c0 13.17 0 13.42 4.43 19.82 15.63 23.26 69.78 42.46 135.88 48.25 17.60 1.48 65.23 0.49 81.85 -1.72z m-9.23 -62.28 c29.54 -2.71 64.98 -10.09 87.26 -18.34 22.40 -8.37 45.66 -22.77 45.66 -28.43 0 -1.97 -1.48 -1.35 -9.23 3.32 -47.02 28.18 -141.54 40.37 -227.69 29.17 -39.51 -5.05 -78.15 -16.62 -98.95 -29.42 -5.05 -3.08 -9.35 -5.29 -9.72 -4.92 -1.60 1.60 2.71 7.02 9.23 11.45 13.91 9.48 33.35 17.97 54.77 24.12 20.31 5.78 52.06 11.45 75.45 13.42 11.94 0.98 60.31 0.74 73.23 -0.37z m8.62 -34.46 c41.48 -5.05 75.94 -14.28 100.92 -27.20 13.05 -6.77 23.38 -14.89 23.38 -18.46 0 -2.22 -0.25 -2.22 -4.68 0.62 -27.94 17.60 -71.02 29.42 -124.43 34.09 -21.17 1.85 -84.31 0.74 -102.89 -1.72 -29.91 -4.18 -51.45 -8.74 -70.65 -15.14 -10.58 -3.57 -32.74 -13.78 -38.40 -17.85 -8 -5.66 -5.91 1.60 2.34 7.75 27.32 20.68 72.25 33.48 139.32 39.63 9.60 0.86 64.12 -0.37 75.08 -1.72z m-22.89 -32 c36.92 -2.34 66.34 -7.63 94.03 -16.74 28.18 -9.23 53.17 -23.51 53.17 -30.28 0 -1.23 -0.25 -2.22 -0.49 -2.22 -0.25 0 -4.06 2.09 -8.25 4.80 -29.42 17.85 -76.31 29.05 -134.52 32.37 -78.03 4.31 -161.60 -10.46 -197.29 -34.95 -4.92 -3.32 -5.29 -3.45 -5.29 -1.11 0 5.17 14.15 15.14 33.85 23.75 30.65 13.54 68.55 21.17 123.69 24.86 12.55 0.74 22.52 0.62 41.11 -0.49z m28.80 -36.18 c50.22 -6.65 88.25 -18.83 110.77 -35.82 5.66 -4.31 7.63 -6.52 7.63 -8.74 0 -2.95 0 -2.95 -6.89 1.48 -24.98 16 -69.91 28.06 -120.49 32.37 -18.83 1.72 -68.18 1.72 -87.38 0.12 -48.98 -4.06 -95.75 -16.12 -120.62 -31.14 -10.95 -6.65 -10.46 -6.40 -10.46 -3.57 0 3.57 9.48 11.45 20.80 17.35 26.58 13.78 65.85 24.25 106.58 28.31 7.51 0.74 15.51 1.60 17.85 1.85 10.46 1.23 67.94 -0.37 82.22 -2.22z m-5.91 -33.48 c40.37 -4.31 74.71 -13.17 100.31 -26.09 9.60 -4.80 22.03 -13.91 24 -17.48 2.46 -4.55 1.11 -4.92 -4.43 -1.23 -20.31 14.03 -59.32 26.22 -102.65 32 -24.25 3.32 -76.55 4.55 -102.15 2.58 -56.98 -4.55 -106.58 -17.72 -132.06 -35.08 -4.18 -2.83 -4.55 -2.95 -4.55 -0.86 0 6.52 23.02 20.68 46.65 28.92 50.22 17.48 113.85 23.75 174.89 17.23z m3.08 -33.72 c49.60 -5.91 89.85 -18.71 113.60 -36.18 5.66 -4.18 7.63 -6.40 7.63 -8.62 0 -2.83 -0.25 -2.83 -9.97 3.08 -54.40 32.62 -171.82 42.83 -262.65 22.65 -26.22 -5.78 -52.92 -15.88 -66.34 -25.11 -6.40 -4.43 -6.89 -4.55 -6.89 -1.60 0 4.80 14.77 15.51 31.88 23.02 48.12 21.17 127.51 30.52 192.74 22.77z m1.72 -33.72 c54.03 -7.14 95.75 -21.54 115.57 -39.88 l5.17 -4.80 0 -22.28 c0 -12.31 -0.25 -22.40 -0.49 -22.40 -0.37 0 -2.46 1.11 -4.68 2.34 -12.18 7.02 -45.05 16.62 -74.22 21.66 -88.25 15.38 -201.48 6.65 -258.71 -19.69 l-8.98 -4.18 0 22.52 0 22.52 5.29 4.92 c9.97 9.23 33.72 20.68 56.37 27.32 22.15 6.40 50.58 11.32 82.34 14.15 13.17 1.11 67.82 -0.37 82.34 -2.22z m1.35 -85.05 c44.31 -5.05 73.23 -12.18 97.85 -24 19.69 -9.35 31.38 -19.45 31.38 -27.08 0 -4.43 -5.78 -12.18 -13.05 -17.48 -6.03 -4.43 -26.22 -15.02 -26.95 -14.28 -0.25 0.25 2.71 2.09 6.52 4.06 13.78 7.14 19.94 15.63 19.94 27.32 0 12.55 -11.82 23.14 -35.69 31.63 -32.62 11.82 -78.40 17.97 -132.80 17.97 -32.37 0 -51.82 -1.23 -79.51 -5.05 -64.49 -8.74 -97.48 -25.97 -93.78 -48.74 0.62 -3.69 0.37 -4.06 -3.20 -5.05 -4.55 -1.23 -6.15 -0.37 -8.25 4.68 -2.09 5.05 -0.74 9.11 5.17 15.51 19.08 20.68 72.37 36.55 142.52 42.34 18.34 1.48 70.15 0.49 89.85 -1.85z m-200.74 -79.88 c-3.08 -2.34 -7.02 -7.02 -9.11 -10.71 -3.08 -5.66 -3.69 -8.37 -4.06 -17.72 -1.11 -26.22 10.22 -49.85 37.78 -78.77 l14.15 -14.77 -13.78 13.54 c-33.60 32.86 -52.31 72.86 -43.45 92.55 2.83 6.15 10.58 14.15 16.98 17.48 7.02 3.69 7.51 3.08 1.48 -1.60z m286.89 -4.31 c-0.98 -0.62 -3.20 -1.35 -4.92 -1.85 -2.58 -0.62 -2.46 -0.37 0.62 1.11 3.94 1.85 7.38 2.46 4.31 0.74z m-233.48 -3.20 c-14.03 -1.85 -22.40 -5.05 -28.55 -10.83 -5.91 -5.66 -7.51 -10.34 -7.51 -22.40 0 -18.22 6.89 -33.11 24.98 -53.91 9.60 -10.95 9.60 -11.08 2.22 -3.94 -16.62 16 -29.78 35.32 -34.58 50.95 -3.08 9.72 -3.08 14.03 0.12 21.05 3.20 7.14 7.75 11.82 14.89 15.51 8.37 4.18 13.42 5.17 28.06 5.17 l12.92 0 -12.55 -1.60z m212.55 -3.82 c-10.83 -3.45 -32.98 -7.88 -51.08 -10.22 -22.77 -2.95 -30.15 -3.32 -33.11 -1.72 -1.60 0.86 1.35 1.35 11.82 1.97 22.40 1.35 57.23 6.52 70.52 10.58 2.09 0.62 4.55 1.11 5.54 1.11 0.98 0 -0.62 -0.74 -3.69 -1.72z m-188.92 -15.38 c-11.69 -1.48 -15.51 -2.95 -20.06 -7.51 -4.92 -4.68 -5.54 -7.02 -5.05 -19.82 0.49 -8.98 0.98 -10.95 4.80 -17.48 5.91 -9.85 20.80 -24.49 33.48 -32.98 20.92 -14.03 41.11 -21.42 61.29 -22.65 19.45 -1.11 30.15 2.58 35.08 12.06 2.09 3.94 2.46 16.86 0.74 23.02 -1.72 5.91 0.12 3.94 4.55 -4.92 8.49 -16.74 6.15 -26.09 -8.86 -33.97 -5.66 -2.95 -7.38 -3.32 -18.58 -3.20 -14.40 0.12 -27.20 3.57 -46.65 12.18 -42.46 19.08 -80.62 61.17 -72.74 80.25 4.80 11.45 13.78 16.25 30.77 16.12 l9.85 -0.12 -8.62 -0.98z m147.57 -80.74 c3.82 -7.75 6.89 -18.22 6.89 -23.63 -0.12 -9.85 -8.49 -21.54 -18.83 -26.46 -24.74 -11.69 -58.58 -7.26 -101.42 13.42 -8.98 4.31 -16.37 8.12 -16.37 8.62 0 0.37 4.43 -1.60 9.97 -4.31 12.06 -6.15 31.26 -12.68 45.17 -15.38 15.14 -3.08 42.34 -2.09 52.43 1.85 8.62 3.32 16.98 11.08 19.20 17.72 1.60 4.92 1.23 27.82 -0.62 31.88 -1.97 4.68 0.74 1.72 3.57 -3.69z m29.42 -13.54 c10.95 -21.91 9.48 -36.06 -5.42 -50.22 -13.05 -12.43 -27.57 -17.11 -53.42 -17.23 -18.83 0 -32.49 2.34 -54.65 9.48 -22.65 7.26 -57.72 24.74 -77.29 38.77 -10.71 7.51 -9.72 8 1.23 0.62 24 -16.25 54.40 -30.15 81.48 -37.29 13.42 -3.57 16.86 -3.94 37.54 -4.43 25.23 -0.62 33.97 0.62 45.91 6.52 9.23 4.55 17.60 13.29 20.55 21.17 2.71 7.14 3.45 26.95 1.35 34.46 -1.60 5.54 -0.62 4.92 2.71 -1.85z m-291.20 2.34 c-1.11 -1.11 -2.09 -4.92 -2.34 -8.25 l-0.37 -6.15 -2.09 3.94 c-3.08 5.54 -2.83 7.51 1.85 10.22 4.92 3.08 5.54 3.08 2.95 0.25z m48 -13.42 c0.37 -0.86 -1.72 -2.09 -4.80 -2.83 -4.43 -1.23 -6.40 -1.11 -12.06 0.74 l-6.77 2.22 5.54 0.86 c8.37 1.23 17.60 0.74 18.09 -0.98z"/>
 </g>
 <g fill="#ffffff">
  <path d="M0 512 l0 -512 768 0 768 0 0 512 0 512 -768 0 -768 0 0 -512z m826.58 336.74 c67.08 -8.98 112.86 -28.06 131.08 -54.40 8 -11.69 7.51 1.97 7.26 -193.97 l-0.12 -178.22 3.08 -4.06 c5.42 -7.14 8.12 -14.40 8.12 -22.65 0.12 -26.58 -29.42 -47.14 -88 -61.29 -15.02 -3.69 -44.43 -8.49 -57.23 -9.48 -4.31 -0.37 -4.18 -0.37 11.69 -13.42 34.95 -28.43 55.02 -55.75 61.66 -83.82 1.11 -4.92 2.83 -10.46 3.82 -12.31 0.86 -1.85 1.72 -6.03 1.97 -9.23 0.25 -5.54 0 -5.91 -4.18 -8.25 -4.43 -2.46 -4.55 -2.71 -5.05 -10.71 -0.62 -11.20 -2.09 -12.68 -11.08 -11.69 l-7.02 0.74 -2.22 -6.89 c-2.95 -9.60 -5.05 -10.71 -15.75 -8.49 -4.80 0.98 -8.74 1.85 -8.74 1.85 -0.12 0 -1.60 -2.22 -3.45 -4.92 -4.06 -6.15 -7.63 -6.40 -18.22 -1.11 l-7.51 3.82 -4.55 -5.29 c-3.94 -4.55 -4.80 -5.05 -8 -4.31 -1.97 0.49 -6.28 2.95 -9.72 5.42 l-6.03 4.43 -7.51 -2.71 c-4.18 -1.48 -8.49 -2.71 -9.60 -2.71 -1.11 0 -5.17 2.83 -8.98 6.40 l-6.89 6.28 -8.37 -1.60 c-11.69 -2.22 -14.03 -1.35 -20.68 7.88 l-5.66 7.88 -9.48 -0.62 c-8.62 -0.62 -9.60 -0.49 -12.68 2.22 -1.85 1.60 -5.17 5.91 -7.38 9.60 l-3.94 6.77 -9.72 0 c-10.09 0.12 -10.34 0.25 -15.63 8.12 -1.72 2.71 -1.97 2.71 -4.92 0.86 -5.66 -3.69 -25.11 -9.35 -35.08 -10.22 -20.43 -1.72 -40 5.17 -55.14 19.20 -14.03 13.17 -18.22 25.85 -11.94 36.18 4.68 7.63 18.83 13.05 33.85 13.05 l6.52 0 -0.12 7.26 c-0.12 7.02 -0.37 7.51 -7.02 14.40 -9.23 9.72 -10.22 11.82 -10.22 22.65 -0.12 8.86 -0.37 9.48 -5.29 16.49 -6.89 9.60 -6.89 13.05 -0.25 19.94 l5.05 5.17 -2.09 4.06 c-1.23 2.34 -5.42 7.63 -9.48 11.82 -3.94 4.18 -8.37 10.34 -9.85 13.54 -5.05 11.45 -2.71 24.86 6.52 36.31 l3.57 4.55 -0.62 166.52 c-0.25 91.57 -0.74 171.57 -0.86 177.60 -0.37 10.34 -0.12 11.69 3.57 19.20 16.12 32.62 70.89 55.51 152.37 63.75 16.25 1.72 79.75 0.62 96.12 -1.60z"/>
  <path d="M725.91 832.49 c-72.62 -7.51 -126.65 -31.26 -133.17 -58.58 -0.98 -4.31 0.37 -4.31 4.31 -0.25 1.60 1.72 6.89 5.54 11.57 8.49 59.82 37.29 180.43 47.14 272 22.15 24.86 -6.77 50.83 -19.20 62.40 -29.91 4.55 -4.18 5.54 -2.71 2.95 4.06 -12.55 32.62 -87.63 56.37 -176.98 55.88 -15.14 -0.12 -34.46 -0.86 -43.08 -1.85z"/>
  <path d="M733.54 802.34 c-65.97 -5.66 -120.25 -24.86 -135.88 -48.12 l-4.43 -6.52 0 -19.32 c0 -10.71 0.25 -19.45 0.62 -19.45 0.37 0 4.06 2.58 8.25 5.66 23.75 17.48 65.60 30.77 116.68 37.05 25.11 3.08 82.22 3.08 106.46 -0.12 50.71 -6.52 89.23 -19.08 113.60 -36.92 4.18 -3.08 7.75 -5.66 8 -5.66 0.12 0 0.12 8.98 -0.12 19.94 l-0.37 20.06 -4.31 6.28 c-5.42 8.12 -11.57 12.92 -25.60 20.18 -23.14 12.18 -50.46 19.57 -93.66 25.35 -16.37 2.22 -71.02 3.20 -89.23 1.60z"/>
  <path d="M732.92 738.83 c-32.49 -2.71 -70.40 -10.58 -94.77 -19.69 -18.22 -6.77 -40.86 -19.82 -43.69 -24.98 -0.74 -1.35 -1.23 -6.15 -0.98 -10.46 l0.37 -8 7.38 5.54 c24.37 18.34 68.80 31.63 126.15 37.66 20.92 2.34 71.88 1.85 94.15 -0.62 53.54 -6.15 100.31 -21.29 120.62 -39.14 l4.31 -3.69 0 6.15 c0 3.45 0.37 7.14 0.74 8.25 2.09 5.42 -22.28 21.29 -46.40 30.28 -22.28 8.25 -57.72 15.63 -87.26 18.34 -12.80 1.11 -68.55 1.35 -80.62 0.37z"/>
  <path d="M739.69 705.72 c-20.18 -1.85 -42.22 -4.80 -55.88 -7.38 -36.80 -7.14 -71.51 -21.05 -86.15 -34.46 -4.18 -3.82 -4.43 -4.43 -4.43 -12.06 0 -4.55 0.37 -8.12 0.86 -8.12 0.49 0 4.06 2.22 8 5.05 19.20 13.42 52.43 25.35 87.14 31.26 35.32 6.03 87.63 8.49 120.74 5.66 57.48 -5.05 106.34 -19.45 130.34 -38.40 3.20 -2.58 6.15 -4.43 6.52 -4.06 0.25 0.37 0.37 4.31 0 8.86 -0.49 8 -0.74 8.37 -6.28 13.54 -10.95 9.97 -38.52 22.03 -66.58 29.17 -12.80 3.20 -35.08 7.26 -51.82 9.23 -10.71 1.35 -72.49 2.58 -82.46 1.72z"/>
  <path d="M750.77 672.49 c-59.94 -4.06 -99.20 -12.55 -131.94 -28.68 -14.03 -6.89 -23.88 -14.03 -24.98 -17.97 -0.49 -1.48 -0.62 -5.66 -0.37 -9.60 l0.37 -7.02 8 5.66 c30.03 21.05 80.12 33.97 145.97 37.54 76.80 4.31 153.11 -10.83 190.65 -37.66 4.31 -3.08 8 -5.54 8.25 -5.54 0.25 0 0.25 4.06 0 8.98 -0.37 5.91 -1.23 9.60 -2.58 11.20 -9.48 10.71 -47.51 27.08 -79.51 33.97 -33.72 7.26 -82.46 11.08 -113.85 9.11z"/>
  <path d="M738.46 638.03 c-2.34 -0.25 -10.34 -1.11 -17.85 -1.85 -50.95 -5.05 -102.52 -21.29 -121.85 -38.28 l-5.54 -4.92 0 -9.11 0 -9.23 7.75 5.42 c16.98 12.06 34.58 19.45 63.02 26.71 51.32 13.17 118.28 16.12 175.38 7.88 41.11 -5.91 80.49 -19.32 99.45 -33.72 3.57 -2.71 6.77 -4.92 7.02 -4.92 0.37 0 0.62 4.06 0.62 9.11 l0 9.11 -7.63 5.78 c-22.52 16.98 -60.43 29.17 -110.77 35.82 -14.28 1.85 -78.52 3.45 -89.60 2.22z"/>
  <path d="M750.77 604.80 c-17.60 -0.98 -39.51 -3.20 -54.03 -5.54 -41.72 -6.65 -81.60 -21.05 -97.35 -35.20 l-6.15 -5.54 0 -8.49 c0 -4.68 0.25 -8.49 0.62 -8.49 0.37 0 3.32 2.09 6.65 4.68 24.25 19.20 75.94 33.72 136.74 38.52 24.49 1.97 70.40 0.74 94.77 -2.58 46.28 -6.15 85.29 -18.95 106.83 -34.95 4.18 -3.08 7.88 -5.66 8.25 -5.66 1.11 0 0.62 14.89 -0.62 17.23 -1.97 3.57 -14.40 12.68 -24 17.48 -25.60 12.92 -59.69 21.78 -100.31 26.09 -16.98 1.85 -56.98 3.20 -71.38 2.46z"/>
  <path d="M747.82 570.95 c-58.46 -2.95 -112.49 -16.25 -140.92 -34.83 -12.92 -8.37 -13.78 -9.85 -13.42 -20.31 l0.37 -8.74 7.38 5.54 c46.65 35.57 162.71 49.97 255.88 31.88 35.94 -7.02 69.78 -20.43 84.92 -33.85 l4.18 -3.57 0.49 8.25 c0.37 4.68 0.12 9.35 -0.49 10.46 -1.48 3.08 -14.89 12.31 -25.60 17.60 -40 20.06 -107.45 30.77 -172.80 27.57z"/>
  <path d="M737.23 537.11 c-31.38 -2.83 -60.18 -7.75 -82.34 -14.15 -22.65 -6.65 -46.40 -18.09 -56.37 -27.32 l-5.29 -4.92 0 -28.06 0 -28.06 12.68 6.03 c17.72 8.37 35.94 14.15 60.43 19.08 73.23 14.65 159.38 13.05 226.34 -4.18 17.72 -4.68 38.28 -12.31 46.52 -17.35 3.32 -1.97 6.65 -3.69 7.26 -3.69 0.74 0 1.23 10.34 1.23 27.94 l0 27.82 -5.17 4.80 c-19.82 18.34 -61.42 32.62 -115.57 39.88 -14.52 1.85 -75.69 3.45 -89.72 2.22z"/>
  <path d="M731.08 451.69 c-56.49 -4.68 -98.46 -14.77 -126.65 -30.40 -13.78 -7.63 -23.51 -18.71 -23.51 -26.46 0.12 -4.55 4.31 -12.55 8.49 -16.12 4.92 -4.06 6.28 -4.18 6.28 -0.37 0 2.46 0.74 3.08 4.92 3.82 4.43 0.74 4.80 1.11 3.57 3.20 -1.85 3.69 -1.60 11.32 0.62 15.51 16.12 31.26 140.31 49.23 240.74 34.83 27.45 -3.94 55.26 -11.57 70.52 -19.32 7.75 -3.82 16.74 -12.18 18.95 -17.48 10.22 -24.12 -48.25 -47.14 -128.25 -50.34 l-19.57 -0.86 9.11 -5.29 9.11 -5.29 14.15 1.35 c60.92 5.54 110.40 20.80 129.97 40 17.23 16.74 9.35 32.25 -24.49 48 -24.12 11.32 -53.17 18.34 -96.74 23.38 -19.45 2.34 -78.15 3.45 -97.23 1.85z"/>
  <path d="M631.88 376 c-20.68 -4.43 -32.86 -18.22 -32.86 -36.92 0 -60.55 92.68 -141.17 186.22 -162.09 10.83 -2.34 16.37 -2.83 33.85 -2.83 29.78 0 43.45 4.18 57.11 17.23 14.15 13.54 16.74 28.68 8.74 50.09 -3.94 10.71 -13.91 24.98 -25.72 37.05 -11.57 11.94 -17.97 16.74 -12.31 9.35 18.34 -24 25.72 -40.25 25.72 -56.62 0 -20.80 -13.54 -35.57 -37.78 -41.23 -6.52 -1.48 -12.68 -1.85 -27.45 -1.35 -16.25 0.49 -21.29 1.11 -33.85 4.43 -45.29 11.94 -91.45 38.77 -123.08 71.75 -31.02 32.12 -43.32 66.09 -31.88 87.14 6.77 12.43 23.14 20.92 43.94 23.02 l8.86 0.86 -5.54 0.86 c-8.74 1.48 -25.85 1.11 -33.97 -0.74z"/>
  <path d="M655.63 363.08 c-29.05 -7.38 -36.06 -33.35 -17.60 -65.60 23.63 -41.35 82.71 -81.97 139.20 -95.75 29.42 -7.14 61.66 -2.34 73.35 10.83 6.89 7.88 8.86 14.15 8.25 25.48 -1.11 17.72 -9.85 33.97 -28.92 53.78 -30.28 31.51 -72.62 56.25 -115.69 67.69 -12.80 3.45 -16.86 3.94 -34.22 4.31 -10.83 0.25 -21.78 -0.12 -24.37 -0.74z m55.75 -10.58 c42.09 -8.49 92.43 -38.65 115.57 -69.42 10.71 -14.28 15.14 -24 15.88 -34.95 0.37 -5.54 0 -10.83 -0.98 -13.66 -2.22 -6.77 -10.58 -14.52 -19.20 -17.85 -10.09 -3.94 -30.65 -4.80 -44.92 -1.97 -65.23 13.17 -132.80 69.54 -132.80 110.89 0 8.37 2.09 13.54 7.51 18.71 11.32 10.71 32.12 13.54 58.95 8.25z"/>
  <path d="M689.72 344.49 c-22.03 -2.83 -31.63 -19.45 -23.14 -40 9.11 -21.91 40.37 -49.97 71.38 -63.88 21.29 -9.48 31.88 -12.06 50.34 -12.18 14.52 -0.12 16.49 0.12 21.54 2.83 11.20 5.78 15.02 11.57 15.02 22.15 0 13.42 -7.88 27.57 -24.86 44.43 -23.02 22.89 -62.03 43.32 -88 46.03 -4.06 0.49 -8.98 0.98 -11.08 1.23 -1.97 0.25 -7.14 0 -11.20 -0.62z m41.72 -12.80 c29.29 -8.49 61.05 -31.51 72.12 -52.31 18.22 -34.09 -17.23 -48.12 -64.98 -25.72 -22.28 10.46 -44.92 29.05 -54.15 44.68 -5.29 8.86 -6.65 19.69 -3.32 25.85 6.28 11.69 25.97 14.65 50.34 7.51z"/>
  <path d="M602.83 255.88 c-14.89 -1.23 -21.42 -2.95 -25.11 -6.65 -7.02 -7.02 -0.37 -19.45 15.75 -29.66 9.35 -5.91 17.85 -8.25 31.14 -8.37 13.29 -0.12 20.80 1.48 30.77 6.40 6.15 3.08 6.15 3.08 2.83 4.18 -2.58 0.86 -5.91 0.25 -14.65 -2.83 -10.09 -3.45 -12.68 -3.82 -21.54 -3.32 -12.31 0.62 -21.17 4.55 -28.68 12.68 -3.82 4.18 -5.05 6.52 -5.05 9.72 0 7.51 7.38 10.95 27.94 12.68 4.92 0.37 8.98 1.11 8.98 1.60 0 0.49 -0.98 1.72 -2.22 2.83 -2.46 2.22 -2.34 2.22 -20.18 0.74z"/>
  <path d="M610.58 238.65 c-4.31 -0.49 -8.12 -1.35 -8.62 -1.72 -1.23 -1.35 6.15 -6.65 12.06 -8.62 3.08 -0.98 7.75 -1.85 10.58 -1.85 6.15 0 17.85 3.32 17.85 5.05 0 0.62 -1.23 2.83 -2.71 4.80 -2.58 3.57 -3.08 3.69 -11.94 3.57 -5.17 -0.12 -12.92 -0.62 -17.23 -1.23z"/>
 </g>
</svg>